<?xml version="1.0" encoding="UTF-8"?> <svg xmlns="http://www.w3.org/2000/svg" width="255" height="129" viewBox="0 0 255 129" fill="none"> <path d="M25.704 33.336C23.7067 33.336 21.896 32.9067 20.272 32.048C18.6667 31.1707 17.3973 29.9667 16.464 28.436C15.5493 26.8867 15.092 25.1413 15.092 23.2C15.092 21.2587 15.5493 19.5227 16.464 17.992C17.3973 16.4427 18.6667 15.2387 20.272 14.38C21.896 13.5027 23.716 13.064 25.732 13.064C27.4307 13.064 28.9613 13.3627 30.324 13.96C31.7053 14.5573 32.8627 15.416 33.796 16.536L30.884 19.224C29.5587 17.6933 27.916 16.928 25.956 16.928C24.7427 16.928 23.66 17.1987 22.708 17.74C21.756 18.2627 21.0093 19 20.468 19.952C19.9453 20.904 19.684 21.9867 19.684 23.2C19.684 24.4133 19.9453 25.496 20.468 26.448C21.0093 27.4 21.756 28.1467 22.708 28.688C23.66 29.2107 24.7427 29.472 25.956 29.472C27.916 29.472 29.5587 28.6973 30.884 27.148L33.796 29.836C32.8627 30.9747 31.7053 31.8427 30.324 32.44C28.9427 33.0373 27.4027 33.336 25.704 33.336ZM50.6216 28.8H41.5216L39.7856 33H35.1376L43.8736 13.4H48.3536L57.1176 33H52.3576L50.6216 28.8ZM49.1936 25.356L46.0856 17.852L42.9776 25.356H49.1936Z" fill="#D5102F"></path> <path d="M78.5328 33L78.5048 21.268L72.7368 30.928H70.7208L64.9528 21.492V33H60.6968V13.4H64.4488L71.7848 25.58L79.0088 13.4H82.7608L82.7888 33H78.5328ZM98.1297 19.84C100.519 19.84 102.348 20.372 103.618 21.436C104.906 22.5 105.55 24.0773 105.55 26.168C105.55 28.3893 104.84 30.088 103.422 31.264C102.022 32.4213 100.043 33 97.4857 33H88.6377V13.4H93.1457V19.84H98.1297ZM97.2337 29.64C98.4097 29.64 99.3244 29.3507 99.9777 28.772C100.65 28.1933 100.986 27.3533 100.986 26.252C100.986 24.2173 99.7351 23.2 97.2337 23.2H93.1457V29.64H97.2337ZM108.042 13.4H112.55V33H108.042V13.4ZM133.587 29.36V33H118.411V13.4H133.223V17.04H122.919V21.296H132.019V24.824H122.919V29.36H133.587ZM55.3147 71.36V75H40.1387V55.4H54.9507V59.04H44.6467V63.296H53.7467V66.824H44.6467V71.36H55.3147ZM68.4425 55.4C70.1785 55.4 71.6812 55.6893 72.9505 56.268C74.2385 56.8467 75.2278 57.668 75.9185 58.732C76.6092 59.796 76.9545 61.056 76.9545 62.512C76.9545 63.9493 76.6092 65.2093 75.9185 66.292C75.2278 67.356 74.2385 68.1773 72.9505 68.756C71.6812 69.316 70.1785 69.596 68.4425 69.596H64.4945V75H59.9585V55.4H68.4425ZM68.1905 65.9C69.5532 65.9 70.5892 65.6107 71.2985 65.032C72.0078 64.4347 72.3625 63.5947 72.3625 62.512C72.3625 61.4107 72.0078 60.5707 71.2985 59.992C70.5892 59.3947 69.5532 59.096 68.1905 59.096H64.4945V65.9H68.1905ZM96.1028 71.36V75H80.9268V55.4H95.7388V59.04H85.4348V63.296H94.5348V66.824H85.4348V71.36H96.1028ZM120.963 71.304V79.06H116.763V75H102.931V79.06H98.7306L98.7586 71.304H99.5426C100.719 71.2667 101.549 70.408 102.035 68.728C102.52 67.048 102.819 64.6493 102.931 61.532L103.155 55.4H118.219V71.304H120.963ZM106.935 61.952C106.841 64.2853 106.645 66.2453 106.347 67.832C106.048 69.4 105.591 70.5573 104.975 71.304H113.739V59.096H107.019L106.935 61.952ZM134.348 75.336C132.313 75.336 130.475 74.8973 128.832 74.02C127.208 73.1427 125.929 71.9387 124.996 70.408C124.081 68.8587 123.624 67.1227 123.624 65.2C123.624 63.2773 124.081 61.5507 124.996 60.02C125.929 58.4707 127.208 57.2573 128.832 56.38C130.475 55.5027 132.313 55.064 134.348 55.064C136.383 55.064 138.212 55.5027 139.836 56.38C141.46 57.2573 142.739 58.4707 143.672 60.02C144.605 61.5507 145.072 63.2773 145.072 65.2C145.072 67.1227 144.605 68.8587 143.672 70.408C142.739 71.9387 141.46 73.1427 139.836 74.02C138.212 74.8973 136.383 75.336 134.348 75.336ZM134.348 71.472C135.505 71.472 136.551 71.2107 137.484 70.688C138.417 70.1467 139.145 69.4 139.668 68.448C140.209 67.496 140.48 66.4133 140.48 65.2C140.48 63.9867 140.209 62.904 139.668 61.952C139.145 61 138.417 60.2627 137.484 59.74C136.551 59.1987 135.505 58.928 134.348 58.928C133.191 58.928 132.145 59.1987 131.212 59.74C130.279 60.2627 129.541 61 129 61.952C128.477 62.904 128.216 63.9867 128.216 65.2C128.216 66.4133 128.477 67.496 129 68.448C129.541 69.4 130.279 70.1467 131.212 70.688C132.145 71.2107 133.191 71.472 134.348 71.472ZM163.126 64.78C164.321 65.1347 165.236 65.7133 165.87 66.516C166.505 67.3187 166.822 68.308 166.822 69.484C166.822 71.22 166.16 72.5733 164.834 73.544C163.528 74.5147 161.652 75 159.206 75H149.546V55.4H158.674C160.952 55.4 162.725 55.8387 163.994 56.716C165.264 57.5933 165.898 58.844 165.898 60.468C165.898 61.4387 165.656 62.2973 165.17 63.044C164.685 63.772 164.004 64.3507 163.126 64.78ZM154.054 63.52H158.282C159.272 63.52 160.018 63.324 160.522 62.932C161.026 62.5213 161.278 61.924 161.278 61.14C161.278 60.3747 161.017 59.7867 160.494 59.376C159.99 58.9653 159.253 58.76 158.282 58.76H154.054V63.52ZM159.038 71.64C161.166 71.64 162.23 70.8 162.23 69.12C162.23 67.496 161.166 66.684 159.038 66.684H154.054V71.64H159.038ZM180.882 61.84C183.271 61.84 185.1 62.372 186.37 63.436C187.658 64.5 188.302 66.0773 188.302 68.168C188.302 70.3893 187.592 72.088 186.174 73.264C184.774 74.4213 182.795 75 180.238 75H171.39V55.4H175.898V61.84H180.882ZM179.986 71.64C181.162 71.64 182.076 71.3507 182.73 70.772C183.402 70.1933 183.738 69.3533 183.738 68.252C183.738 66.2173 182.487 65.2 179.986 65.2H175.898V71.64H179.986ZM190.794 55.4H195.302V75H190.794V55.4ZM216.339 71.36V75H201.163V55.4H215.975V59.04H205.671V63.296H214.771V66.824H205.671V71.36H216.339ZM50.4201 113.36V117H35.2441V97.4H50.0561V101.04H39.7521V105.296H48.8521V108.824H39.7521V113.36H50.4201ZM58.4006 97.4L62.4606 103.336L66.5206 97.4H71.8406L65.3166 106.78L72.3726 117H67.0246L62.4606 110.504L57.9526 117H52.7166L59.7166 106.976L53.1646 97.4H58.4006ZM93.4067 97.4V117H88.8707V108.964H79.9667V117H75.4307V97.4H79.9667V105.128H88.8707V97.4H93.4067ZM108.649 117.336C106.615 117.336 104.776 116.897 103.133 116.02C101.509 115.143 100.231 113.939 99.2974 112.408C98.3827 110.859 97.9254 109.123 97.9254 107.2C97.9254 105.277 98.3827 103.551 99.2974 102.02C100.231 100.471 101.509 99.2573 103.133 98.38C104.776 97.5027 106.615 97.064 108.649 97.064C110.684 97.064 112.513 97.5027 114.137 98.38C115.761 99.2573 117.04 100.471 117.973 102.02C118.907 103.551 119.373 105.277 119.373 107.2C119.373 109.123 118.907 110.859 117.973 112.408C117.04 113.939 115.761 115.143 114.137 116.02C112.513 116.897 110.684 117.336 108.649 117.336ZM108.649 113.472C109.807 113.472 110.852 113.211 111.785 112.688C112.719 112.147 113.447 111.4 113.969 110.448C114.511 109.496 114.781 108.413 114.781 107.2C114.781 105.987 114.511 104.904 113.969 103.952C113.447 103 112.719 102.263 111.785 101.74C110.852 101.199 109.807 100.928 108.649 100.928C107.492 100.928 106.447 101.199 105.513 101.74C104.58 102.263 103.843 103 103.301 103.952C102.779 104.904 102.517 105.987 102.517 107.2C102.517 108.413 102.779 109.496 103.301 110.448C103.843 111.4 104.58 112.147 105.513 112.688C106.447 113.211 107.492 113.472 108.649 113.472ZM140.773 97.4V117H136.293V101.096H129.573L129.433 105.184C129.34 107.965 129.116 110.224 128.761 111.96C128.406 113.677 127.809 115.003 126.969 115.936C126.148 116.851 124.99 117.308 123.497 117.308C122.881 117.308 122.134 117.205 121.257 117L121.537 113.164C121.78 113.239 122.05 113.276 122.349 113.276C123.432 113.276 124.188 112.641 124.617 111.372C125.046 110.084 125.317 108.077 125.429 105.352L125.709 97.4H140.773ZM156 117.336C153.965 117.336 152.127 116.897 150.484 116.02C148.86 115.143 147.581 113.939 146.648 112.408C145.733 110.859 145.276 109.123 145.276 107.2C145.276 105.277 145.733 103.551 146.648 102.02C147.581 100.471 148.86 99.2573 150.484 98.38C152.127 97.5027 153.965 97.064 156 97.064C158.035 97.064 159.864 97.5027 161.488 98.38C163.112 99.2573 164.391 100.471 165.324 102.02C166.257 103.551 166.724 105.277 166.724 107.2C166.724 109.123 166.257 110.859 165.324 112.408C164.391 113.939 163.112 115.143 161.488 116.02C159.864 116.897 158.035 117.336 156 117.336ZM156 113.472C157.157 113.472 158.203 113.211 159.136 112.688C160.069 112.147 160.797 111.4 161.32 110.448C161.861 109.496 162.132 108.413 162.132 107.2C162.132 105.987 161.861 104.904 161.32 103.952C160.797 103 160.069 102.263 159.136 101.74C158.203 101.199 157.157 100.928 156 100.928C154.843 100.928 153.797 101.199 152.864 101.74C151.931 102.263 151.193 103 150.652 103.952C150.129 104.904 149.868 105.987 149.868 107.2C149.868 108.413 150.129 109.496 150.652 110.448C151.193 111.4 151.931 112.147 152.864 112.688C153.797 113.211 154.843 113.472 156 113.472ZM185.002 101.096H175.678L175.706 117H171.198V97.4H185.03L185.002 101.096ZM188.776 97.4H193.284V110.168L202.636 97.4H206.892V117H202.412V104.26L193.06 117H188.776V97.4ZM212.752 97.4H217.26V110.168L226.612 97.4H230.868V117H226.388V104.26L217.036 117H212.752V97.4Z" fill="white"></path> <path d="M34.3 55.4V75H29.792V59.096H20.944V75H16.436V55.4H34.3ZM31.416 101.096H25.144V117H20.664V101.096H14.42V97.4H31.416V101.096Z" fill="#D4102F"></path> <line x1="0.5" y1="2.18558e-08" x2="0.499994" y2="129" stroke="white"></line> </svg> 