<?xml version="1.0" encoding="UTF-8"?> <svg xmlns="http://www.w3.org/2000/svg" width="8" height="11" viewBox="0 0 8 11" fill="none"> <path d="M3.64645 4.35355C3.84171 4.54882 4.15829 4.54882 4.35355 4.35355L7.53553 1.17157C7.7308 0.976311 7.7308 0.659728 7.53553 0.464466C7.34027 0.269204 7.02369 0.269204 6.82843 0.464466L4 3.29289L1.17157 0.464466C0.976311 0.269204 0.659728 0.269204 0.464466 0.464466C0.269204 0.659728 0.269204 0.976311 0.464466 1.17157L3.64645 4.35355ZM3.5 3V4H4.5V3H3.5Z" fill="black"></path> <path d="M3.64645 10.3536C3.84171 10.5488 4.15829 10.5488 4.35355 10.3536L7.53553 7.17157C7.7308 6.97631 7.7308 6.65973 7.53553 6.46447C7.34027 6.2692 7.02369 6.2692 6.82843 6.46447L4 9.29289L1.17157 6.46447C0.976311 6.2692 0.659728 6.2692 0.464466 6.46447C0.269204 6.65973 0.269204 6.97631 0.464466 7.17157L3.64645 10.3536ZM3.5 9V10H4.5V9H3.5Z" fill="black"></path> </svg> 