<?xml version="1.0" encoding="UTF-8"?> <svg xmlns="http://www.w3.org/2000/svg" width="39" height="49" viewBox="0 0 39 49" fill="none"> <path d="M0 0H32L39 7.5V49H0V0Z" fill="#DC2644"></path> <path d="M13.3281 32.0996H15.1551C15.6218 32.0996 16.0184 32.2583 16.3451 32.5756C16.6671 32.893 16.8281 33.2826 16.8281 33.7446C16.8281 34.2066 16.6671 34.5963 16.3451 34.9136C16.0184 35.231 15.6218 35.3896 15.1551 35.3896H14.2941V36.9996H13.3281V32.0996ZM14.2941 34.4866H15.1551C15.3604 34.4866 15.5308 34.4166 15.6661 34.2766C15.8014 34.132 15.8691 33.9546 15.8691 33.7446C15.8691 33.53 15.8014 33.3526 15.6661 33.2126C15.5308 33.0726 15.3604 33.0026 15.1551 33.0026H14.2941V34.4866ZM17.457 32.0996H19.403C20.075 32.0996 20.635 32.3353 21.083 32.8066C21.5357 33.2733 21.762 33.8543 21.762 34.5496C21.762 35.245 21.5357 35.826 21.083 36.2926C20.635 36.764 20.075 36.9996 19.403 36.9996H17.457V32.0996ZM18.423 36.0756H19.403C19.8277 36.0756 20.173 35.9356 20.439 35.6556C20.705 35.3663 20.838 34.9976 20.838 34.5496C20.838 34.097 20.705 33.7306 20.439 33.4506C20.173 33.166 19.8277 33.0236 19.403 33.0236H18.423V36.0756ZM25.3733 32.0996V33.0236H23.4133V34.1856H25.3173V35.1096H23.4133V36.9996H22.4473V32.0996H25.3733Z" fill="white"></path> <path d="M39 7.5H32V0L39 7.5Z" fill="#991926"></path> <path d="M19.1487 26.3536C19.344 26.5488 19.6606 26.5488 19.8558 26.3536L23.0378 23.1716C23.2331 22.9763 23.2331 22.6598 23.0378 22.4645C22.8425 22.2692 22.526 22.2692 22.3307 22.4645L19.5023 25.2929L16.6739 22.4645C16.4786 22.2692 16.162 22.2692 15.9667 22.4645C15.7715 22.6598 15.7715 22.9763 15.9667 23.1716L19.1487 26.3536ZM19.0023 12.5V26H20.0023V12.5H19.0023Z" fill="white"></path> </svg> 