<?xml version="1.0" encoding="UTF-8"?> <svg xmlns="http://www.w3.org/2000/svg" width="12" height="12" viewBox="0 0 12 12" fill="none"> <g clip-path="url(#clip0_393_165)"> <path d="M10.9432 2.9841C10.9211 2.95448 10.8934 2.92951 10.8616 2.9106C10.8299 2.8917 10.7947 2.87923 10.7581 2.87392C10.7216 2.86861 10.6843 2.87056 10.6485 2.87965C10.6127 2.88874 10.579 2.9048 10.5494 2.92691L6.01286 6.31316C5.99663 6.32533 5.9769 6.33191 5.95661 6.33191C5.93633 6.33191 5.91659 6.32533 5.90036 6.31316L1.45286 2.91191C1.4235 2.88951 1.39001 2.8731 1.35431 2.86364C1.31861 2.85417 1.28139 2.85183 1.24478 2.85675C1.20818 2.86167 1.1729 2.87375 1.14096 2.89231C1.10902 2.91086 1.08105 2.93552 1.05864 2.96488C1.03624 2.99425 1.01983 3.02773 1.01037 3.06344C1.0009 3.09914 0.998563 3.13636 1.00348 3.17296C1.0084 3.20957 1.02048 3.24485 1.03903 3.27679C1.05759 3.30872 1.08225 3.33669 1.11161 3.3591L4.60849 6.03379L1.15005 8.64004C1.12026 8.66226 1.09513 8.69013 1.07611 8.72207C1.05709 8.754 1.04454 8.78936 1.03919 8.82614C1.03383 8.86292 1.03578 8.9004 1.04491 8.93643C1.05403 8.97246 1.07017 9.00634 1.09239 9.03613C1.11461 9.06593 1.14249 9.09105 1.17442 9.11007C1.20635 9.12909 1.24172 9.14164 1.2785 9.14699C1.31528 9.15235 1.35275 9.1504 1.38878 9.14128C1.42481 9.13215 1.45869 9.11601 1.48849 9.09379L5.07255 6.38816L5.55817 6.76316C5.67141 6.84984 5.80979 6.89727 5.95239 6.89829C6.09498 6.8993 6.23403 6.85384 6.34849 6.76879L6.85849 6.38816L10.4847 9.09379C10.5143 9.11589 10.548 9.13194 10.5838 9.14102C10.6196 9.15011 10.6569 9.15205 10.6935 9.14674C10.73 9.14143 10.7652 9.12897 10.7969 9.11007C10.8287 9.09118 10.8564 9.06621 10.8785 9.0366C10.9006 9.00699 10.9166 8.97332 10.9257 8.93751C10.9348 8.9017 10.9368 8.86444 10.9314 8.82788C10.9261 8.79132 10.9137 8.75616 10.8948 8.72441C10.8759 8.69266 10.8509 8.66495 10.8213 8.64285L7.32817 6.03285L10.886 3.37504C10.945 3.33048 10.9841 3.26447 10.9948 3.1913C11.0055 3.11814 10.9869 3.0437 10.9432 2.9841Z" fill="white"></path> <path d="M10.5938 1.78125H1.40625C1.03329 1.78125 0.675604 1.92941 0.411881 2.19313C0.148158 2.45685 0 2.81454 0 3.1875L0 8.8125C0 9.18546 0.148158 9.54315 0.411881 9.80687C0.675604 10.0706 1.03329 10.2188 1.40625 10.2188H10.5938C10.9667 10.2188 11.3244 10.0706 11.5881 9.80687C11.8518 9.54315 12 9.18546 12 8.8125V3.1875C12 2.81454 11.8518 2.45685 11.5881 2.19313C11.3244 1.92941 10.9667 1.78125 10.5938 1.78125ZM11.4375 8.8125C11.4375 9.03628 11.3486 9.25089 11.1904 9.40912C11.0321 9.56736 10.8175 9.65625 10.5938 9.65625H1.40625C1.18247 9.65625 0.967862 9.56736 0.809629 9.40912C0.651395 9.25089 0.5625 9.03628 0.5625 8.8125V3.1875C0.5625 2.96372 0.651395 2.74911 0.809629 2.59088C0.967862 2.43264 1.18247 2.34375 1.40625 2.34375H10.5938C10.8175 2.34375 11.0321 2.43264 11.1904 2.59088C11.3486 2.74911 11.4375 2.96372 11.4375 3.1875V8.8125Z" fill="white"></path> </g> <defs> <clipPath id="clip0_393_165"> <rect width="12" height="12" fill="white"></rect> </clipPath> </defs> </svg> 