<?xml version="1.0" encoding="UTF-8"?> <svg xmlns="http://www.w3.org/2000/svg" width="72" height="97" viewBox="0 0 72 97" fill="none"> <g clip-path="url(#clip0_433_1030)"> <path d="M52.4919 19.3479H38.3812C36.8237 19.3479 35.0549 20.6021 34.4303 22.1495L25.0713 44.7869C24.9258 45.1281 24.7767 45.4852 24.6187 45.8764C17.2411 64.1592 0 65.2188 0 65.2188H33.5818C35.1393 65.2188 36.907 63.964 37.5319 62.4164L46.3658 41.0509C46.6703 40.3981 47.0072 39.6199 47.3825 38.69C54.7603 20.4075 72.0006 19.3479 72.0006 19.3479H52.4919Z" fill="#989D9F"></path> <path d="M51.3066 40.2543C50.9074 41.2433 50.5037 42.2394 50.0603 43.173L41.4431 64.0143C40.1837 67.1333 36.8723 69.4215 33.5812 69.4215H14.2783C20.1915 74.5948 27.9493 77.7336 36.446 77.7336C54.9845 77.7336 70.0123 62.7981 70.0123 44.3755C70.0123 37.5339 67.929 31.1811 64.3741 25.8885C59.8863 28.0675 54.5387 32.2463 51.3066 40.2543Z" fill="#BF1D37"></path> <path d="M17.574 97H8.60788C6.95332 97 5.70108 96.8423 4.87396 96.5046C3.57704 95.9867 2.92871 95.0186 2.92871 93.6451V89.2769C2.92871 87.0252 4.65002 85.8992 8.09369 85.8992H17.7084C18.3121 85.8992 18.6031 86.2147 18.6031 86.8225V87.0477C18.6031 87.6557 18.3121 87.9707 17.7084 87.9707H8.25005C7.42272 87.9707 6.81899 88.016 6.43891 88.1059C5.70108 88.2861 5.34336 88.6462 5.34336 89.2094V93.5552C5.34336 94.478 6.43891 94.951 8.65259 94.951H17.7977C18.4015 94.951 18.6924 95.2662 18.6924 95.8743V96.0766C18.6924 96.6847 18.3121 97 17.574 97Z" fill="white"></path> <path d="M35.1503 91.1458H26.5192C26.0721 91.1458 25.5799 91.236 25.0438 91.3934C24.3057 91.641 23.9257 91.9562 23.9257 92.3614V93.7575C23.9257 94.2304 24.3504 94.5457 25.2224 94.7483C25.513 94.816 25.9827 94.8835 26.6087 94.951H32.6238C34.3008 94.951 35.1503 94.5682 35.1503 93.78V91.1458ZM32.6012 97H26.676C26.1168 97 25.4909 96.9101 24.7975 96.7524C22.584 96.2343 21.4883 95.2438 21.4883 93.78V92.3614C21.4883 91.2132 22.0919 90.3576 23.2774 89.7722C24.1939 89.3219 25.2897 89.0967 26.5864 89.0967H35.1727C35.0385 88.3537 34.0769 87.9707 32.3105 87.9707H30.4771C29.8732 87.9707 29.5826 87.6557 29.5826 87.0477V86.8225C29.5826 86.2147 29.8732 85.8992 30.4771 85.8992H31.7963C35.6421 85.8992 37.5653 87.0477 37.5653 89.3219V93.6676C37.5653 95.8965 35.9104 97 32.6012 97Z" fill="white"></path> <path d="M54.5602 97H53.9119C53.3082 97 53.0173 96.6847 53.0173 96.0766V89.0291C53.0173 88.6013 52.7491 88.3085 52.2125 88.1511C51.7878 88.0385 51.0274 87.9707 49.954 87.9707H45.9962C44.8558 87.9707 44.0956 88.016 43.6709 88.1287C43.112 88.2861 42.8437 88.6013 42.8437 89.0291V96.0766C42.8437 96.6847 42.5531 97 41.9492 97H41.3232C40.7193 97 40.4287 96.6847 40.4287 96.0766V89.0515C40.4287 86.9575 42.2845 85.8992 45.9741 85.8992H49.954C53.621 85.8992 55.4547 86.935 55.4547 89.0291V96.0766C55.4547 96.6847 55.1638 97 54.5602 97Z" fill="white"></path> <path d="M68.6026 87.9933H64.3095V96.2571C64.3095 96.7298 64.0859 96.9775 63.6164 96.9775H63.0126C62.4089 96.9775 62.0957 96.7298 62.0957 96.2571V87.9933H57.8251C57.3554 87.9933 57.1318 87.7458 57.1318 87.2728V86.5976C57.1318 86.1244 57.3554 85.8993 57.8251 85.8993H68.6026C69.0721 85.8993 69.318 86.1244 69.318 86.5976V87.2728C69.318 87.7458 69.0721 87.9933 68.6026 87.9933Z" fill="white"></path> <path d="M21.374 1.47539L23.1979 0.0674591H25.5309V5.91846H24.1224V1.32357H23.6899L22.1205 2.54609L21.374 1.47539Z" fill="white"></path> <path d="M30.9607 2.69764H32.4452C33.3107 2.69764 33.5058 2.36067 33.5058 1.84648C33.5058 1.3405 33.2937 1.10456 32.4199 1.10456H30.9607C30.0954 1.10456 29.9004 1.34896 29.9004 1.83802C29.9004 2.41965 30.0699 2.69764 30.9607 2.69764ZM33.5058 4.03839V3.27108C33.2937 3.51575 33.0222 3.80219 31.9872 3.80219H30.9016C29.3404 3.80219 28.4922 3.44803 28.4922 2.12447C28.4922 0.430089 28.9079 1.04904e-05 30.6724 1.04904e-05H32.7337C34.1675 1.04904e-05 34.914 0.497533 34.914 1.61875V4.22381C34.914 5.404 34.3455 5.91846 32.7255 5.91846H30.6724C29.1538 5.91846 28.543 5.40401 28.543 4.27433H29.8666C29.8666 4.79724 30.2823 4.81391 30.9016 4.81391H32.3603C33.2088 4.81391 33.5058 4.67055 33.5058 4.03839Z" fill="white"></path> <path d="M38.2651 2.69764H39.7499C40.6151 2.69764 40.8102 2.36067 40.8102 1.84648C40.8102 1.3405 40.5981 1.10456 39.7244 1.10456H38.2651C37.3999 1.10456 37.205 1.34896 37.205 1.83802C37.205 2.41965 37.3746 2.69764 38.2651 2.69764ZM40.8102 4.03839V3.27108C40.5981 3.51575 40.3266 3.80219 39.2916 3.80219H38.206C36.6451 3.80219 35.7969 3.44803 35.7969 2.12447C35.7969 0.430089 36.2123 1.04904e-05 37.9769 1.04904e-05H40.0384C41.4719 1.04904e-05 42.2184 0.497533 42.2184 1.61875V4.22381C42.2184 5.404 41.6499 5.91846 40.0296 5.91846H37.9769C36.4582 5.91846 35.8474 5.40401 35.8474 4.27433H37.171C37.171 4.79724 37.5867 4.81391 38.206 4.81391H39.665C40.5132 4.81391 40.8102 4.67055 40.8102 4.03839Z" fill="white"></path> <path d="M43.127 2.22578C43.127 0.994798 43.3391 0.0674591 45.2393 0.0674591H47.36C49.0143 0.0674591 49.4894 0.497534 49.4894 1.98958C49.4894 3.22056 48.6324 3.76014 47.3855 3.83605L45.5531 3.94556C44.7132 3.99634 44.5351 4.13097 44.5351 4.50232V4.81391H49.4894V5.91846H43.127V4.58618C43.127 3.6673 43.4493 2.88332 45.2646 2.78228L47.1308 2.68125C47.8859 2.63893 48.0812 2.42786 48.0812 1.88828C48.0812 1.34896 47.8688 1.17175 46.9357 1.17175H45.9518C44.5945 1.17175 44.5351 1.38255 44.5351 2.22578H43.127Z" fill="white"></path> <path d="M20.6937 44.312C20.9629 43.6446 21.2346 42.9736 21.5191 42.32L30.5184 20.5527C31.7776 17.433 35.09 15.145 38.3811 15.145H52.6111C47.8144 12.5193 42.3092 11.0165 36.4465 11.0165C17.9094 11.0165 2.88086 25.9514 2.88086 44.3754C2.88086 49.7175 4.15098 54.7629 6.39708 59.2393C11.099 57.2478 17.1613 53.0648 20.6937 44.312Z" fill="#1A181A"></path> </g> <defs> <clipPath id="clip0_433_1030"> <rect width="72" height="97" fill="white"></rect> </clipPath> </defs> </svg> 