<?xml version="1.0" encoding="UTF-8"?> <svg xmlns="http://www.w3.org/2000/svg" width="20" height="20" viewBox="0 0 20 20" fill="none"> <path d="M8.09766 0.425537C12.3359 0.425537 15.7695 3.85913 15.7695 8.09741C15.7695 9.92944 15.1289 11.6091 14.0586 12.9294L19.332 18.2029C19.6445 18.5154 19.6445 19.0193 19.332 19.3318C19.0195 19.6443 18.5156 19.6443 18.2031 19.3318L12.9297 14.0583C11.6094 15.1287 9.92969 15.7693 8.09766 15.7693C3.85938 15.7693 0.425783 12.3357 0.425783 8.09741C0.425783 3.85913 3.86328 0.425537 8.09766 0.425537ZM8.09766 14.1755C11.4531 14.1755 14.1758 11.4529 14.1758 8.09741C14.1758 4.74194 11.4531 2.01929 8.09766 2.01929C4.74219 2.01929 2.01953 4.74194 2.01953 8.09741C2.01953 11.4529 4.74219 14.1755 8.09766 14.1755Z" fill="white"></path> </svg> 