<?xml version="1.0" encoding="UTF-8"?> <svg xmlns="http://www.w3.org/2000/svg" width="38" height="38" viewBox="0 0 38 38" fill="none"> <rect x="0.5" y="0.5" width="37" height="37" fill="#BF1B2C" stroke="#BF1B2C"></rect> <path d="M16.704 24.14C15.92 24.14 15.22 23.944 14.604 23.552C13.988 23.1507 13.5027 22.572 13.148 21.816C12.7933 21.0507 12.616 20.1453 12.616 19.1C12.616 18.0547 12.7933 17.154 13.148 16.398C13.5027 15.6327 13.988 15.054 14.604 14.662C15.22 14.2607 15.92 14.06 16.704 14.06C17.488 14.06 18.188 14.2607 18.804 14.662C19.4293 15.054 19.9193 15.6327 20.274 16.398C20.6287 17.154 20.806 18.0547 20.806 19.1C20.806 20.1453 20.6287 21.0507 20.274 21.816C19.9193 22.572 19.4293 23.1507 18.804 23.552C18.188 23.944 17.488 24.14 16.704 24.14ZM16.704 22.558C17.404 22.558 17.9547 22.2687 18.356 21.69C18.7667 21.1113 18.972 20.248 18.972 19.1C18.972 17.952 18.7667 17.0887 18.356 16.51C17.9547 15.9313 17.404 15.642 16.704 15.642C16.0133 15.642 15.4627 15.9313 15.052 16.51C14.6507 17.0887 14.45 17.952 14.45 19.1C14.45 20.248 14.6507 21.1113 15.052 21.69C15.4627 22.2687 16.0133 22.558 16.704 22.558ZM25.3556 14.2V24H23.5356V15.726H21.4636V14.2H25.3556Z" fill="white"></path> </svg> 