<?xml version="1.0" encoding="UTF-8"?> <svg xmlns="http://www.w3.org/2000/svg" width="38" height="38" viewBox="0 0 38 38" fill="none"> <rect x="0.5" y="0.5" width="37" height="37" fill="#BF1B2C" stroke="#BF1B2C"></rect> <path d="M14.704 24.14C13.92 24.14 13.22 23.944 12.604 23.552C11.988 23.1507 11.5027 22.572 11.148 21.816C10.7933 21.0507 10.616 20.1453 10.616 19.1C10.616 18.0547 10.7933 17.154 11.148 16.398C11.5027 15.6327 11.988 15.054 12.604 14.662C13.22 14.2607 13.92 14.06 14.704 14.06C15.488 14.06 16.188 14.2607 16.804 14.662C17.4293 15.054 17.9193 15.6327 18.274 16.398C18.6287 17.154 18.806 18.0547 18.806 19.1C18.806 20.1453 18.6287 21.0507 18.274 21.816C17.9193 22.572 17.4293 23.1507 16.804 23.552C16.188 23.944 15.488 24.14 14.704 24.14ZM14.704 22.558C15.404 22.558 15.9547 22.2687 16.356 21.69C16.7667 21.1113 16.972 20.248 16.972 19.1C16.972 17.952 16.7667 17.0887 16.356 16.51C15.9547 15.9313 15.404 15.642 14.704 15.642C14.0133 15.642 13.4627 15.9313 13.052 16.51C12.6507 17.0887 12.45 17.952 12.45 19.1C12.45 20.248 12.6507 21.1113 13.052 21.69C13.4627 22.2687 14.0133 22.558 14.704 22.558ZM27.0656 22.46V24H19.8416V22.782L23.7336 19.086C24.1722 18.666 24.4662 18.302 24.6156 17.994C24.7742 17.6767 24.8536 17.364 24.8536 17.056C24.8536 16.5987 24.6996 16.2487 24.3916 16.006C24.0836 15.7633 23.6309 15.642 23.0336 15.642C22.0349 15.642 21.2696 15.9827 20.7376 16.664L19.4636 15.684C19.8462 15.1707 20.3596 14.774 21.0036 14.494C21.6569 14.2047 22.3849 14.06 23.1876 14.06C24.2516 14.06 25.1009 14.312 25.7356 14.816C26.3702 15.32 26.6876 16.006 26.6876 16.874C26.6876 17.406 26.5756 17.9053 26.3516 18.372C26.1276 18.8387 25.6982 19.3707 25.0636 19.968L22.4456 22.46H27.0656Z" fill="white"></path> </svg> 