<?xml version="1.0" encoding="UTF-8"?> <svg xmlns="http://www.w3.org/2000/svg" width="38" height="38" viewBox="0 0 38 38" fill="none"> <rect x="0.5" y="0.5" width="37" height="37" fill="#BF1B2C" stroke="#BF1B2C"></rect> <path d="M14.704 24.14C13.92 24.14 13.22 23.944 12.604 23.552C11.988 23.1507 11.5027 22.572 11.148 21.816C10.7933 21.0507 10.616 20.1453 10.616 19.1C10.616 18.0547 10.7933 17.154 11.148 16.398C11.5027 15.6327 11.988 15.054 12.604 14.662C13.22 14.2607 13.92 14.06 14.704 14.06C15.488 14.06 16.188 14.2607 16.804 14.662C17.4293 15.054 17.9193 15.6327 18.274 16.398C18.6287 17.154 18.806 18.0547 18.806 19.1C18.806 20.1453 18.6287 21.0507 18.274 21.816C17.9193 22.572 17.4293 23.1507 16.804 23.552C16.188 23.944 15.488 24.14 14.704 24.14ZM14.704 22.558C15.404 22.558 15.9547 22.2687 16.356 21.69C16.7667 21.1113 16.972 20.248 16.972 19.1C16.972 17.952 16.7667 17.0887 16.356 16.51C15.9547 15.9313 15.404 15.642 14.704 15.642C14.0133 15.642 13.4627 15.9313 13.052 16.51C12.6507 17.0887 12.45 17.952 12.45 19.1C12.45 20.248 12.6507 21.1113 13.052 21.69C13.4627 22.2687 14.0133 22.558 14.704 22.558ZM24.0712 18.246C24.9765 18.358 25.6672 18.666 26.1432 19.17C26.6192 19.674 26.8572 20.304 26.8572 21.06C26.8572 21.6293 26.7125 22.1473 26.4232 22.614C26.1339 23.0807 25.6952 23.454 25.1072 23.734C24.5285 24.0047 23.8192 24.14 22.9792 24.14C22.2792 24.14 21.6025 24.042 20.9492 23.846C20.3052 23.6407 19.7545 23.3607 19.2972 23.006L20.0812 21.592C20.4359 21.8907 20.8652 22.1287 21.3692 22.306C21.8825 22.474 22.4099 22.558 22.9512 22.558C23.5952 22.558 24.0992 22.4273 24.4632 22.166C24.8365 21.8953 25.0232 21.5313 25.0232 21.074C25.0232 20.6167 24.8459 20.262 24.4912 20.01C24.1459 19.7487 23.6139 19.618 22.8952 19.618H21.9992V18.372L24.2252 15.726H19.7732V14.2H26.4512V15.418L24.0712 18.246Z" fill="white"></path> </svg> 