<?xml version="1.0" encoding="UTF-8"?> <svg xmlns="http://www.w3.org/2000/svg" width="175" height="26" viewBox="0 0 175 26" fill="none"> <path d="M11.488 7.8V19H9.44V9.56H3.632V19H1.584V7.8H11.488ZM19.1581 10.36C19.9901 10.36 20.7315 10.5413 21.3821 10.904C22.0435 11.2667 22.5608 11.7787 22.9341 12.44C23.3075 13.1013 23.4941 13.864 23.4941 14.728C23.4941 15.592 23.3075 16.36 22.9341 17.032C22.5608 17.6933 22.0435 18.2053 21.3821 18.568C20.7315 18.9307 19.9901 19.112 19.1581 19.112C18.0061 19.112 17.0941 18.728 16.4221 17.96V22.104H14.4221V10.456H16.3261V11.576C16.6568 11.1707 17.0621 10.8667 17.5421 10.664C18.0328 10.4613 18.5715 10.36 19.1581 10.36ZM18.9341 17.4C19.6701 17.4 20.2728 17.1547 20.7421 16.664C21.2221 16.1733 21.4621 15.528 21.4621 14.728C21.4621 13.928 21.2221 13.2827 20.7421 12.792C20.2728 12.3013 19.6701 12.056 18.9341 12.056C18.4541 12.056 18.0221 12.168 17.6381 12.392C17.2541 12.6053 16.9501 12.9147 16.7261 13.32C16.5021 13.7253 16.3901 14.1947 16.3901 14.728C16.3901 15.2613 16.5021 15.7307 16.7261 16.136C16.9501 16.5413 17.2541 16.856 17.6381 17.08C18.0221 17.2933 18.4541 17.4 18.9341 17.4ZM29.2926 19.112C28.4286 19.112 27.65 18.9253 26.9566 18.552C26.2633 18.1787 25.7193 17.6613 25.3246 17C24.9406 16.328 24.7486 15.5707 24.7486 14.728C24.7486 13.8853 24.9406 13.1333 25.3246 12.472C25.7193 11.8107 26.2633 11.2933 26.9566 10.92C27.65 10.5467 28.4286 10.36 29.2926 10.36C30.1673 10.36 30.9513 10.5467 31.6446 10.92C32.338 11.2933 32.8766 11.8107 33.2606 12.472C33.6553 13.1333 33.8526 13.8853 33.8526 14.728C33.8526 15.5707 33.6553 16.328 33.2606 17C32.8766 17.6613 32.338 18.1787 31.6446 18.552C30.9513 18.9253 30.1673 19.112 29.2926 19.112ZM29.2926 17.4C30.0286 17.4 30.6366 17.1547 31.1166 16.664C31.5966 16.1733 31.8366 15.528 31.8366 14.728C31.8366 13.928 31.5966 13.2827 31.1166 12.792C30.6366 12.3013 30.0286 12.056 29.2926 12.056C28.5566 12.056 27.9486 12.3013 27.4686 12.792C26.9993 13.2827 26.7646 13.928 26.7646 14.728C26.7646 15.528 26.9993 16.1733 27.4686 16.664C27.9486 17.1547 28.5566 17.4 29.2926 17.4ZM35.8284 10.456H37.8284V16.088L42.5484 10.456H44.3724V19H42.3724V13.368L37.6684 19H35.8284V10.456ZM52.0574 14.552C52.5907 14.7013 53.0014 14.9467 53.2894 15.288C53.588 15.6187 53.7374 16.0187 53.7374 16.488C53.7374 17.0107 53.5614 17.4747 53.2094 17.88C52.8574 18.2747 52.372 18.584 51.7534 18.808C51.1347 19.032 50.4307 19.144 49.6414 19.144C48.98 19.144 48.3347 19.0693 47.7054 18.92C47.076 18.76 46.5054 18.536 45.9934 18.248L46.5694 16.76C46.9854 16.9947 47.4547 17.176 47.9774 17.304C48.5 17.432 49.0227 17.496 49.5454 17.496C50.2174 17.496 50.74 17.3947 51.1134 17.192C51.4974 16.9787 51.6894 16.6907 51.6894 16.328C51.6894 15.9973 51.54 15.7413 51.2414 15.56C50.9534 15.3787 50.5427 15.288 50.0094 15.288H48.3454V13.944H49.8494C50.3507 13.944 50.74 13.8587 51.0174 13.688C51.3054 13.5173 51.4494 13.2773 51.4494 12.968C51.4494 12.6587 51.2787 12.4133 50.9374 12.232C50.596 12.0507 50.1267 11.96 49.5294 11.96C48.676 11.96 47.7747 12.168 46.8254 12.584L46.3134 11.112C47.4334 10.5893 48.564 10.328 49.7054 10.328C50.4307 10.328 51.0814 10.4293 51.6574 10.632C52.2334 10.824 52.6814 11.1013 53.0014 11.464C53.332 11.816 53.4974 12.2213 53.4974 12.68C53.4974 13.096 53.3694 13.4693 53.1134 13.8C52.8574 14.12 52.5054 14.3707 52.0574 14.552ZM62.0048 14.552C63.0608 14.872 63.5888 15.5547 63.5888 16.6C63.5888 17.368 63.3008 17.96 62.7248 18.376C62.1488 18.792 61.2954 19 60.1648 19H55.8128V10.456H59.9888C61.0341 10.456 61.8501 10.648 62.4368 11.032C63.0234 11.416 63.3168 11.96 63.3168 12.664C63.3168 13.1013 63.1994 13.48 62.9648 13.8C62.7408 14.12 62.4208 14.3707 62.0048 14.552ZM57.7168 14.024H59.8128C60.8474 14.024 61.3648 13.6667 61.3648 12.952C61.3648 12.2587 60.8474 11.912 59.8128 11.912H57.7168V14.024ZM60.0048 17.544C61.1034 17.544 61.6528 17.1867 61.6528 16.472C61.6528 16.0987 61.5248 15.8213 61.2688 15.64C61.0128 15.448 60.6128 15.352 60.0688 15.352H57.7168V17.544H60.0048ZM69.527 19.112C68.663 19.112 67.8843 18.9253 67.191 18.552C66.4977 18.1787 65.9537 17.6613 65.559 17C65.175 16.328 64.983 15.5707 64.983 14.728C64.983 13.8853 65.175 13.1333 65.559 12.472C65.9537 11.8107 66.4977 11.2933 67.191 10.92C67.8843 10.5467 68.663 10.36 69.527 10.36C70.4017 10.36 71.1857 10.5467 71.879 10.92C72.5723 11.2933 73.111 11.8107 73.495 12.472C73.8897 13.1333 74.087 13.8853 74.087 14.728C74.087 15.5707 73.8897 16.328 73.495 17C73.111 17.6613 72.5723 18.1787 71.879 18.552C71.1857 18.9253 70.4017 19.112 69.527 19.112ZM69.527 17.4C70.263 17.4 70.871 17.1547 71.351 16.664C71.831 16.1733 72.071 15.528 72.071 14.728C72.071 13.928 71.831 13.2827 71.351 12.792C70.871 12.3013 70.263 12.056 69.527 12.056C68.791 12.056 68.183 12.3013 67.703 12.792C67.2337 13.2827 66.999 13.928 66.999 14.728C66.999 15.528 67.2337 16.1733 67.703 16.664C68.183 17.1547 68.791 17.4 69.527 17.4ZM85.089 17.304V20.904H83.217V19H76.625V20.904H74.769V17.304H75.169C75.713 17.2827 76.081 16.936 76.273 16.264C76.4757 15.5813 76.609 14.6213 76.673 13.384L76.785 10.456H83.825V17.304H85.089ZM78.497 13.528C78.4543 14.5093 78.3743 15.3093 78.257 15.928C78.1397 16.5467 77.9263 17.0053 77.617 17.304H81.825V12.152H78.545L78.497 13.528ZM90.7633 19.112C89.8779 19.112 89.0833 18.9253 88.3793 18.552C87.6753 18.1787 87.1259 17.6613 86.7313 17C86.3366 16.328 86.1393 15.5707 86.1393 14.728C86.1393 13.8853 86.3366 13.1333 86.7313 12.472C87.1259 11.8107 87.6699 11.2933 88.3633 10.92C89.0673 10.5467 89.8673 10.36 90.7633 10.36C91.6059 10.36 92.3419 10.5307 92.9713 10.872C93.6113 11.2133 94.0913 11.704 94.4113 12.344L92.8753 13.24C92.6299 12.8453 92.3206 12.552 91.9473 12.36C91.5846 12.1573 91.1846 12.056 90.7473 12.056C90.0006 12.056 89.3819 12.3013 88.8913 12.792C88.4006 13.272 88.1553 13.9173 88.1553 14.728C88.1553 15.5387 88.3953 16.1893 88.8753 16.68C89.3659 17.16 89.9899 17.4 90.7473 17.4C91.1846 17.4 91.5846 17.304 91.9473 17.112C92.3206 16.9093 92.6299 16.6107 92.8753 16.216L94.4113 17.112C94.0806 17.752 93.5953 18.248 92.9553 18.6C92.3259 18.9413 91.5953 19.112 90.7633 19.112ZM102.862 12.152H99.87V19H97.87V12.152H94.862V10.456H102.862V12.152ZM110.505 14.552C111.561 14.872 112.089 15.5547 112.089 16.6C112.089 17.368 111.801 17.96 111.225 18.376C110.649 18.792 109.795 19 108.665 19H104.313V10.456H108.489C109.534 10.456 110.35 10.648 110.937 11.032C111.523 11.416 111.817 11.96 111.817 12.664C111.817 13.1013 111.699 13.48 111.465 13.8C111.241 14.12 110.921 14.3707 110.505 14.552ZM106.217 14.024H108.313C109.347 14.024 109.865 13.6667 109.865 12.952C109.865 12.2587 109.347 11.912 108.313 11.912H106.217V14.024ZM108.505 17.544C109.603 17.544 110.153 17.1867 110.153 16.472C110.153 16.0987 110.025 15.8213 109.769 15.64C109.513 15.448 109.113 15.352 108.569 15.352H106.217V17.544H108.505ZM118.027 19.112C117.163 19.112 116.384 18.9253 115.691 18.552C114.998 18.1787 114.454 17.6613 114.059 17C113.675 16.328 113.483 15.5707 113.483 14.728C113.483 13.8853 113.675 13.1333 114.059 12.472C114.454 11.8107 114.998 11.2933 115.691 10.92C116.384 10.5467 117.163 10.36 118.027 10.36C118.902 10.36 119.686 10.5467 120.379 10.92C121.072 11.2933 121.611 11.8107 121.995 12.472C122.39 13.1333 122.587 13.8853 122.587 14.728C122.587 15.5707 122.39 16.328 121.995 17C121.611 17.6613 121.072 18.1787 120.379 18.552C119.686 18.9253 118.902 19.112 118.027 19.112ZM118.027 17.4C118.763 17.4 119.371 17.1547 119.851 16.664C120.331 16.1733 120.571 15.528 120.571 14.728C120.571 13.928 120.331 13.2827 119.851 12.792C119.371 12.3013 118.763 12.056 118.027 12.056C117.291 12.056 116.683 12.3013 116.203 12.792C115.734 13.2827 115.499 13.928 115.499 14.728C115.499 15.528 115.734 16.1733 116.203 16.664C116.683 17.1547 117.291 17.4 118.027 17.4Z" fill="black"></path> <path d="M0 20.6H123.211V21.4H0V20.6Z" fill="black"></path> <path d="M174.354 15.3536C174.549 15.1583 174.549 14.8417 174.354 14.6464L171.172 11.4645C170.976 11.2692 170.66 11.2692 170.464 11.4645C170.269 11.6597 170.269 11.9763 170.464 12.1716L173.293 15L170.464 17.8284C170.269 18.0237 170.269 18.3403 170.464 18.5355C170.66 18.7308 170.976 18.7308 171.172 18.5355L174.354 15.3536ZM149 15.5H174V14.5H149V15.5Z" fill="black"></path> </svg> 