<?xml version="1.0" encoding="UTF-8"?> <svg xmlns="http://www.w3.org/2000/svg" width="222" height="608" viewBox="0 0 222 608" fill="none"> <rect width="222" height="68" fill="#F2F2F2"></rect> <path d="M47.3 41V27H50.06V41H47.3ZM57.2167 41.28C55.8434 41.28 54.6834 40.9733 53.7367 40.36C52.7901 39.7467 52.1167 38.9 51.7167 37.82L54.0767 36.44C54.6234 37.8667 55.6967 38.58 57.2967 38.58C58.0434 38.58 58.6034 38.4467 58.9767 38.18C59.3501 37.9133 59.5367 37.5533 59.5367 37.1C59.5367 36.6067 59.3167 36.2267 58.8767 35.96C58.4367 35.68 57.6501 35.38 56.5167 35.06C55.2901 34.6867 54.3234 34.2533 53.6167 33.76C52.7367 33.1067 52.2967 32.1467 52.2967 30.88C52.2967 29.6 52.7434 28.5933 53.6367 27.86C54.5301 27.1 55.6167 26.72 56.8967 26.72C58.0167 26.72 59.0101 26.9933 59.8767 27.54C60.7434 28.0867 61.4167 28.86 61.8967 29.86L59.5767 31.2C59.0167 30 58.1234 29.4 56.8967 29.4C56.3367 29.4 55.8901 29.5333 55.5567 29.8C55.2234 30.0533 55.0567 30.3867 55.0567 30.8C55.0567 31.24 55.2367 31.6 55.5967 31.88C55.9967 32.16 56.7034 32.4533 57.7167 32.76L58.6767 33.08C58.8501 33.1333 59.1501 33.2467 59.5767 33.42C59.9767 33.5667 60.2701 33.7067 60.4567 33.84C61.1101 34.24 61.5501 34.6533 61.7767 35.08C62.1234 35.64 62.2967 36.3 62.2967 37.06C62.2967 38.3533 61.8234 39.38 60.8767 40.14C59.9301 40.9 58.7101 41.28 57.2167 41.28ZM75.7792 39.18C74.3659 40.58 72.6459 41.28 70.6192 41.28C68.5926 41.28 66.8726 40.58 65.4592 39.18C64.0592 37.7533 63.3592 36.0267 63.3592 34C63.3592 31.96 64.0592 30.24 65.4592 28.84C66.8726 27.4267 68.5926 26.72 70.6192 26.72C72.6459 26.72 74.3659 27.4267 75.7792 28.84C77.1926 30.24 77.8992 31.96 77.8992 34C77.8992 36.04 77.1926 37.7667 75.7792 39.18ZM67.3992 37.3C68.2526 38.1533 69.3259 38.58 70.6192 38.58C71.9126 38.58 72.9859 38.1533 73.8392 37.3C74.7059 36.4333 75.1392 35.3333 75.1392 34C75.1392 32.6667 74.7059 31.5667 73.8392 30.7C72.9726 29.8333 71.8992 29.4 70.6192 29.4C69.3392 29.4 68.2659 29.8333 67.3992 30.7C66.5326 31.5667 66.0992 32.6667 66.0992 34C66.0992 35.3333 66.5326 36.4333 67.3992 37.3ZM93.3391 25L85.3391 43H84.1991L92.1991 25H93.3391ZM99.2678 27H109.568V29.64H105.788V41H103.028V29.64H99.2678V27ZM115.498 41.28C114.125 41.28 112.965 40.9733 112.018 40.36C111.071 39.7467 110.398 38.9 109.998 37.82L112.358 36.44C112.905 37.8667 113.978 38.58 115.578 38.58C116.325 38.58 116.885 38.4467 117.258 38.18C117.631 37.9133 117.818 37.5533 117.818 37.1C117.818 36.6067 117.598 36.2267 117.158 35.96C116.718 35.68 115.931 35.38 114.798 35.06C113.571 34.6867 112.605 34.2533 111.898 33.76C111.018 33.1067 110.578 32.1467 110.578 30.88C110.578 29.6 111.025 28.5933 111.918 27.86C112.811 27.1 113.898 26.72 115.178 26.72C116.298 26.72 117.291 26.9933 118.158 27.54C119.025 28.0867 119.698 28.86 120.178 29.86L117.858 31.2C117.298 30 116.405 29.4 115.178 29.4C114.618 29.4 114.171 29.5333 113.838 29.8C113.505 30.0533 113.338 30.3867 113.338 30.8C113.338 31.24 113.518 31.6 113.878 31.88C114.278 32.16 114.985 32.4533 115.998 32.76L116.958 33.08C117.131 33.1333 117.431 33.2467 117.858 33.42C118.258 33.5667 118.551 33.7067 118.738 33.84C119.391 34.24 119.831 34.6533 120.058 35.08C120.405 35.64 120.578 36.3 120.578 37.06C120.578 38.3533 120.105 39.38 119.158 40.14C118.211 40.9 116.991 41.28 115.498 41.28ZM126.298 28.3L129.978 27H132.378V41H129.618V29.92L126.978 30.66L126.298 28.3ZM142.613 27L139.513 31.54C140.966 31.58 142.146 32.0533 143.053 32.96C143.959 33.8667 144.413 35.0133 144.413 36.4C144.413 37.8267 143.939 39 142.993 39.92C142.046 40.8267 140.826 41.28 139.333 41.28C137.839 41.28 136.619 40.8267 135.673 39.92C134.739 39.0267 134.273 37.8533 134.273 36.4C134.273 35.3467 134.546 34.4067 135.093 33.58L139.453 27H142.613ZM141.673 36.4C141.673 35.7333 141.453 35.1933 141.013 34.78C140.573 34.3533 140.013 34.14 139.333 34.14C138.653 34.14 138.093 34.3467 137.653 34.76C137.226 35.1733 137.013 35.72 137.013 36.4C137.013 37.08 137.226 37.6333 137.653 38.06C138.093 38.4733 138.653 38.68 139.333 38.68C140.013 38.68 140.573 38.4733 141.013 38.06C141.453 37.6333 141.673 37.08 141.673 36.4ZM154.256 31.58C154.256 32.66 153.976 33.6067 153.416 34.42H153.436L149.076 41H145.916L149.036 36.44C147.583 36.4267 146.396 35.9667 145.476 35.06C144.57 34.1533 144.116 32.9933 144.116 31.58C144.116 30.14 144.583 28.9733 145.516 28.08C146.463 27.1733 147.683 26.72 149.176 26.72C150.67 26.72 151.89 27.1733 152.836 28.08C153.783 28.9867 154.256 30.1533 154.256 31.58ZM146.856 31.58C146.856 32.26 147.076 32.8133 147.516 33.24C147.956 33.6533 148.51 33.86 149.176 33.86C149.87 33.86 150.43 33.6533 150.856 33.24C151.296 32.8133 151.516 32.26 151.516 31.58C151.516 30.9 151.296 30.3533 150.856 29.94C150.43 29.5267 149.87 29.32 149.176 29.32C148.51 29.32 147.956 29.5333 147.516 29.96C147.076 30.3733 146.856 30.9133 146.856 31.58ZM163.75 36.06H165.25V38.62H163.75V41H160.97V38.62H154.35V36.06L159.01 27H161.97L157.33 36.06H160.97V32.74H163.75V36.06ZM175.741 31.58C175.741 32.66 175.461 33.6067 174.901 34.42H174.921L170.561 41H167.401L170.521 36.44C169.067 36.4267 167.881 35.9667 166.961 35.06C166.054 34.1533 165.601 32.9933 165.601 31.58C165.601 30.14 166.067 28.9733 167.001 28.08C167.947 27.1733 169.167 26.72 170.661 26.72C172.154 26.72 173.374 27.1733 174.321 28.08C175.267 28.9867 175.741 30.1533 175.741 31.58ZM168.341 31.58C168.341 32.26 168.561 32.8133 169.001 33.24C169.441 33.6533 169.994 33.86 170.661 33.86C171.354 33.86 171.914 33.6533 172.341 33.24C172.781 32.8133 173.001 32.26 173.001 31.58C173.001 30.9 172.781 30.3533 172.341 29.94C171.914 29.5267 171.354 29.32 170.661 29.32C169.994 29.32 169.441 29.5333 169.001 29.96C168.561 30.3733 168.341 30.9133 168.341 31.58Z" fill="black"></path> <rect x="29" y="95" width="119" height="68" fill="#DDDDDD"></rect> <path d="M75.6933 136.28C74.3199 136.28 73.1599 135.973 72.2133 135.36C71.2666 134.747 70.5933 133.9 70.1933 132.82L72.5533 131.44C73.0999 132.867 74.1733 133.58 75.7733 133.58C76.5199 133.58 77.0799 133.447 77.4533 133.18C77.8266 132.913 78.0133 132.553 78.0133 132.1C78.0133 131.607 77.7933 131.227 77.3533 130.96C76.9133 130.68 76.1266 130.38 74.9933 130.06C73.7666 129.687 72.7999 129.253 72.0933 128.76C71.2133 128.107 70.7733 127.147 70.7733 125.88C70.7733 124.6 71.2199 123.593 72.1133 122.86C73.0066 122.1 74.0933 121.72 75.3733 121.72C76.4933 121.72 77.4866 121.993 78.3533 122.54C79.2199 123.087 79.8933 123.86 80.3733 124.86L78.0533 126.2C77.4933 125 76.5999 124.4 75.3733 124.4C74.8133 124.4 74.3666 124.533 74.0333 124.8C73.6999 125.053 73.5333 125.387 73.5333 125.8C73.5333 126.24 73.7133 126.6 74.0733 126.88C74.4733 127.16 75.1799 127.453 76.1933 127.76L77.1533 128.08C77.3266 128.133 77.6266 128.247 78.0533 128.42C78.4533 128.567 78.7466 128.707 78.9333 128.84C79.5866 129.24 80.0266 129.653 80.2533 130.08C80.5999 130.64 80.7733 131.3 80.7733 132.06C80.7733 133.353 80.2999 134.38 79.3533 135.14C78.4066 135.9 77.1866 136.28 75.6933 136.28ZM82.4758 122H87.6958C89.0291 122 90.1624 122.453 91.0958 123.36C92.0158 124.267 92.4758 125.38 92.4758 126.7C92.4758 128.02 92.0158 129.133 91.0958 130.04C90.1624 130.947 89.0291 131.4 87.6958 131.4H85.2358V136H82.4758V122ZM85.2358 128.82H87.6958C88.2824 128.82 88.7691 128.62 89.1558 128.22C89.5424 127.807 89.7358 127.3 89.7358 126.7C89.7358 126.087 89.5424 125.58 89.1558 125.18C88.7691 124.78 88.2824 124.58 87.6958 124.58H85.2358V128.82ZM100.815 136.28C98.7217 136.28 96.9817 135.58 95.595 134.18C94.2217 132.793 93.535 131.067 93.535 129C93.535 126.92 94.2217 125.193 95.595 123.82C96.9817 122.42 98.7217 121.72 100.815 121.72C102.082 121.72 103.248 122.02 104.315 122.62C105.395 123.207 106.235 124.007 106.835 125.02L104.455 126.4C104.108 125.773 103.615 125.287 102.975 124.94C102.335 124.58 101.615 124.4 100.815 124.4C99.455 124.4 98.355 124.827 97.515 125.68C96.6883 126.547 96.275 127.653 96.275 129C96.275 130.333 96.6883 131.433 97.515 132.3C98.355 133.153 99.455 133.58 100.815 133.58C101.615 133.58 102.335 133.407 102.975 133.06C103.628 132.7 104.122 132.213 104.455 131.6L106.835 132.98C106.235 133.993 105.395 134.8 104.315 135.4C103.248 135.987 102.082 136.28 100.815 136.28Z" fill="black"></path> <rect x="29" y="184" width="119" height="68" fill="#DDDDDD"></rect> <path d="M80.2108 211H83.0508V225H80.3108V215.92L76.3708 222.42H76.0508L72.1108 215.94V225H69.3508V211H72.1908L76.2108 217.62L80.2108 211ZM90.2245 225.28C88.8512 225.28 87.6912 224.973 86.7445 224.36C85.7979 223.747 85.1245 222.9 84.7245 221.82L87.0845 220.44C87.6312 221.867 88.7045 222.58 90.3045 222.58C91.0512 222.58 91.6112 222.447 91.9845 222.18C92.3579 221.913 92.5445 221.553 92.5445 221.1C92.5445 220.607 92.3245 220.227 91.8845 219.96C91.4445 219.68 90.6579 219.38 89.5245 219.06C88.2979 218.687 87.3312 218.253 86.6245 217.76C85.7445 217.107 85.3045 216.147 85.3045 214.88C85.3045 213.6 85.7512 212.593 86.6445 211.86C87.5379 211.1 88.6245 210.72 89.9045 210.72C91.0245 210.72 92.0179 210.993 92.8845 211.54C93.7512 212.087 94.4245 212.86 94.9045 213.86L92.5845 215.2C92.0245 214 91.1312 213.4 89.9045 213.4C89.3445 213.4 88.8979 213.533 88.5645 213.8C88.2312 214.053 88.0645 214.387 88.0645 214.8C88.0645 215.24 88.2445 215.6 88.6045 215.88C89.0045 216.16 89.7112 216.453 90.7245 216.76L91.6845 217.08C91.8579 217.133 92.1579 217.247 92.5845 217.42C92.9845 217.567 93.2779 217.707 93.4645 217.84C94.1179 218.24 94.5579 218.653 94.7845 219.08C95.1312 219.64 95.3045 220.3 95.3045 221.06C95.3045 222.353 94.8312 223.38 93.8845 224.14C92.9379 224.9 91.7179 225.28 90.2245 225.28ZM108.89 225H105.89L105.05 222.48H99.4698L98.6298 225H95.6498L100.55 211H103.97L108.89 225ZM102.27 214.18L100.35 219.9H104.19L102.27 214.18Z" fill="black"></path> <rect x="29" y="273" width="119" height="68" fill="#DDDDDD"></rect> <path d="M72.7303 300V302.64H67.1303V305.96H72.5703V308.6H67.1303V314H64.3703V300H72.7303ZM85.6014 300H88.4414V314H85.7014V304.92L81.7614 311.42H81.4414L77.5014 304.94V314H74.7414V300H77.5814L81.6014 306.62L85.6014 300ZM93.81 308.22V311.36H99.71V314H91.05V300H99.61V302.64H93.81V305.62H99.11V308.22H93.81ZM113.87 314H110.87L110.03 311.48H104.45L103.61 314H100.63L105.53 300H108.95L113.87 314ZM107.25 303.18L105.33 308.9H109.17L107.25 303.18Z" fill="black"></path> <rect x="29" y="362" width="119" height="68" fill="#F4F4F4"></rect> <path d="M75.4035 403H72.4035L71.5635 400.48H65.9835L65.1435 403H62.1635L67.0635 389H70.4835L75.4035 403ZM68.7835 392.18L66.8635 397.9H70.7035L68.7835 392.18ZM76.7629 389H81.9829C83.3162 389 84.4496 389.453 85.3829 390.36C86.3029 391.267 86.7629 392.38 86.7629 393.7C86.7629 395.02 86.3029 396.133 85.3829 397.04C84.4496 397.947 83.3162 398.4 81.9829 398.4H79.5229V403H76.7629V389ZM79.5229 395.82H81.9829C82.5696 395.82 83.0562 395.62 83.4429 395.22C83.8296 394.807 84.0229 394.3 84.0229 393.7C84.0229 393.087 83.8296 392.58 83.4429 392.18C83.0562 391.78 82.5696 391.58 81.9829 391.58H79.5229V395.82ZM102.362 396C102.362 397.8 101.789 399.373 100.642 400.72L102.082 402.22L100.122 403.96L98.6021 402.38C97.5221 402.98 96.3488 403.28 95.0821 403.28C93.0821 403.28 91.3688 402.58 89.9421 401.18C88.5288 399.767 87.8221 398.04 87.8221 396C87.8221 393.96 88.5288 392.24 89.9421 390.84C91.3554 389.427 93.0688 388.72 95.0821 388.72C97.0954 388.72 98.8088 389.427 100.222 390.84C101.649 392.24 102.362 393.96 102.362 396ZM95.0821 400.58C95.6154 400.58 96.1354 400.493 96.6421 400.32L94.3421 397.92L96.3021 396.18L98.7621 398.74C99.3221 397.94 99.6021 397.027 99.6021 396C99.6021 394.667 99.1688 393.567 98.3021 392.7C97.4354 391.833 96.3621 391.4 95.0821 391.4C93.8021 391.4 92.7288 391.833 91.8621 392.7C90.9954 393.567 90.5621 394.667 90.5621 396C90.5621 397.32 90.9954 398.413 91.8621 399.28C92.7288 400.147 93.8021 400.58 95.0821 400.58ZM104.4 389H109.62C110.953 389 112.086 389.453 113.02 390.36C113.94 391.267 114.4 392.38 114.4 393.7C114.4 395.02 113.94 396.133 113.02 397.04C112.086 397.947 110.953 398.4 109.62 398.4H107.16V403H104.4V389ZM107.16 395.82H109.62C110.206 395.82 110.693 395.62 111.08 395.22C111.466 394.807 111.66 394.3 111.66 393.7C111.66 393.087 111.466 392.58 111.08 392.18C110.693 391.78 110.206 391.58 109.62 391.58H107.16V395.82Z" fill="black"></path> <rect x="29" y="451" width="119" height="68" fill="#F4F4F4"></rect> <path d="M66.1379 478H71.3579C72.6912 478 73.8246 478.453 74.7579 479.36C75.6779 480.267 76.1379 481.38 76.1379 482.7C76.1379 484.02 75.6779 485.133 74.7579 486.04C73.8246 486.947 72.6912 487.4 71.3579 487.4H68.8979V492H66.1379V478ZM68.8979 484.82H71.3579C71.9446 484.82 72.4312 484.62 72.8179 484.22C73.2046 483.807 73.3979 483.3 73.3979 482.7C73.3979 482.087 73.2046 481.58 72.8179 481.18C72.4312 480.78 71.9446 480.58 71.3579 480.58H68.8979V484.82ZM77.9348 478H83.1548C84.4881 478 85.6214 478.453 86.5548 479.36C87.4748 480.267 87.9348 481.38 87.9348 482.7C87.9348 484.02 87.4748 485.133 86.5548 486.04C85.6214 486.947 84.4881 487.4 83.1548 487.4H80.6948V492H77.9348V478ZM80.6948 484.82H83.1548C83.7414 484.82 84.2281 484.62 84.6148 484.22C85.0014 483.807 85.1948 483.3 85.1948 482.7C85.1948 482.087 85.0014 481.58 84.6148 481.18C84.2281 480.78 83.7414 480.58 83.1548 480.58H80.6948V484.82ZM100.306 492H97.3059L96.4659 489.48H90.8859L90.0459 492H87.0659L91.9659 478H95.3859L100.306 492ZM93.6859 481.18L91.7659 486.9H95.6059L93.6859 481.18ZM101.665 478H106.885C108.219 478 109.352 478.453 110.285 479.36C111.205 480.267 111.665 481.38 111.665 482.7C111.665 484.02 111.205 485.133 110.285 486.04C109.352 486.947 108.219 487.4 106.885 487.4H104.425V492H101.665V478ZM104.425 484.82H106.885C107.472 484.82 107.959 484.62 108.345 484.22C108.732 483.807 108.925 483.3 108.925 482.7C108.925 482.087 108.732 481.58 108.345 481.18C107.959 480.78 107.472 480.58 106.885 480.58H104.425V484.82Z" fill="black"></path> <rect x="29" y="540" width="119" height="68" fill="#A6A6A6"></rect> <path d="M83.5828 574C83.5828 575.8 83.0095 577.373 81.8628 578.72L83.3028 580.22L81.3428 581.96L79.8228 580.38C78.7428 580.98 77.5695 581.28 76.3028 581.28C74.3028 581.28 72.5895 580.58 71.1628 579.18C69.7495 577.767 69.0428 576.04 69.0428 574C69.0428 571.96 69.7495 570.24 71.1628 568.84C72.5761 567.427 74.2895 566.72 76.3028 566.72C78.3161 566.72 80.0295 567.427 81.4428 568.84C82.8695 570.24 83.5828 571.96 83.5828 574ZM76.3028 578.58C76.8361 578.58 77.3561 578.493 77.8628 578.32L75.5628 575.92L77.5228 574.18L79.9828 576.74C80.5428 575.94 80.8228 575.027 80.8228 574C80.8228 572.667 80.3895 571.567 79.5228 570.7C78.6561 569.833 77.5828 569.4 76.3028 569.4C75.0228 569.4 73.9495 569.833 73.0828 570.7C72.2161 571.567 71.7828 572.667 71.7828 574C71.7828 575.32 72.2161 576.413 73.0828 577.28C73.9495 578.147 75.0228 578.58 76.3028 578.58ZM89.8925 581.28C88.5192 581.28 87.3592 580.973 86.4125 580.36C85.4658 579.747 84.7925 578.9 84.3925 577.82L86.7525 576.44C87.2992 577.867 88.3725 578.58 89.9725 578.58C90.7192 578.58 91.2792 578.447 91.6525 578.18C92.0258 577.913 92.2125 577.553 92.2125 577.1C92.2125 576.607 91.9925 576.227 91.5525 575.96C91.1125 575.68 90.3258 575.38 89.1925 575.06C87.9658 574.687 86.9992 574.253 86.2925 573.76C85.4125 573.107 84.9725 572.147 84.9725 570.88C84.9725 569.6 85.4192 568.593 86.3125 567.86C87.2058 567.1 88.2925 566.72 89.5725 566.72C90.6925 566.72 91.6858 566.993 92.5525 567.54C93.4192 568.087 94.0925 568.86 94.5725 569.86L92.2525 571.2C91.6925 570 90.7992 569.4 89.5725 569.4C89.0125 569.4 88.5658 569.533 88.2325 569.8C87.8992 570.053 87.7325 570.387 87.7325 570.8C87.7325 571.24 87.9125 571.6 88.2725 571.88C88.6725 572.16 89.3792 572.453 90.3925 572.76L91.3525 573.08C91.5258 573.133 91.8258 573.247 92.2525 573.42C92.6525 573.567 92.9458 573.707 93.1325 573.84C93.7858 574.24 94.2258 574.653 94.4525 575.08C94.7992 575.64 94.9725 576.3 94.9725 577.06C94.9725 578.353 94.4992 579.38 93.5525 580.14C92.6058 580.9 91.3858 581.28 89.8925 581.28ZM108.558 581H105.558L104.718 578.48H99.1378L98.2978 581H95.3178L100.218 567H103.638L108.558 581ZM101.938 570.18L100.018 575.9H103.858L101.938 570.18Z" fill="black"></path> <line x1="0.5" y1="83" x2="0.499978" y2="576" stroke="black"></line> <path d="M21.3536 576.354C21.5488 576.158 21.5488 575.842 21.3536 575.646L18.1716 572.464C17.9763 572.269 17.6597 572.269 17.4645 572.464C17.2692 572.66 17.2692 572.976 17.4645 573.172L20.2929 576L17.4645 578.828C17.2692 579.024 17.2692 579.34 17.4645 579.536C17.6597 579.731 17.9763 579.731 18.1716 579.536L21.3536 576.354ZM0 576.5H21V575.5H0L0 576.5Z" fill="black"></path> <path d="M21.3536 485.354C21.5488 485.158 21.5488 484.842 21.3536 484.646L18.1716 481.464C17.9763 481.269 17.6597 481.269 17.4645 481.464C17.2692 481.66 17.2692 481.976 17.4645 482.172L20.2929 485L17.4645 487.828C17.2692 488.024 17.2692 488.34 17.4645 488.536C17.6597 488.731 17.9763 488.731 18.1716 488.536L21.3536 485.354ZM0 485.5H21V484.5H0L0 485.5Z" fill="black"></path> <path d="M21.3536 396.354C21.5488 396.158 21.5488 395.842 21.3536 395.646L18.1716 392.464C17.9763 392.269 17.6597 392.269 17.4645 392.464C17.2692 392.66 17.2692 392.976 17.4645 393.172L20.2929 396L17.4645 398.828C17.2692 399.024 17.2692 399.34 17.4645 399.536C17.6597 399.731 17.9763 399.731 18.1716 399.536L21.3536 396.354ZM0 396.5H21V395.5H0L0 396.5Z" fill="black"></path> <path d="M21.3536 307.354C21.5488 307.158 21.5488 306.842 21.3536 306.646L18.1716 303.464C17.9763 303.269 17.6597 303.269 17.4645 303.464C17.2692 303.66 17.2692 303.976 17.4645 304.172L20.2929 307L17.4645 309.828C17.2692 310.024 17.2692 310.34 17.4645 310.536C17.6597 310.731 17.9763 310.731 18.1716 310.536L21.3536 307.354ZM0 307.5H21V306.5H0L0 307.5Z" fill="black"></path> <path d="M21.3536 218.354C21.5488 218.158 21.5488 217.842 21.3536 217.646L18.1716 214.464C17.9763 214.269 17.6597 214.269 17.4645 214.464C17.2692 214.66 17.2692 214.976 17.4645 215.172L20.2929 218L17.4645 220.828C17.2692 221.024 17.2692 221.34 17.4645 221.536C17.6597 221.731 17.9763 221.731 18.1716 221.536L21.3536 218.354ZM0 218.5H21V217.5H0L0 218.5Z" fill="black"></path> <path d="M21.3536 129.354C21.5488 129.158 21.5488 128.842 21.3536 128.646L18.1716 125.464C17.9763 125.269 17.6597 125.269 17.4645 125.464C17.2692 125.66 17.2692 125.976 17.4645 126.172L20.2929 129L17.4645 131.828C17.2692 132.024 17.2692 132.34 17.4645 132.536C17.6597 132.731 17.9763 132.731 18.1716 132.536L21.3536 129.354ZM0 129.5H21V128.5H0L0 129.5Z" fill="black"></path> </svg> 