<?xml version="1.0" encoding="UTF-8"?> <svg xmlns="http://www.w3.org/2000/svg" width="729" height="187" viewBox="0 0 729 187" fill="none"> <rect x="251" width="222" height="68" fill="#F2F2F2"></rect> <path d="M298.3 41V27H301.06V41H298.3ZM308.217 41.28C306.843 41.28 305.683 40.9733 304.737 40.36C303.79 39.7467 303.117 38.9 302.717 37.82L305.077 36.44C305.623 37.8667 306.697 38.58 308.297 38.58C309.043 38.58 309.603 38.4467 309.977 38.18C310.35 37.9133 310.537 37.5533 310.537 37.1C310.537 36.6067 310.317 36.2267 309.877 35.96C309.437 35.68 308.65 35.38 307.517 35.06C306.29 34.6867 305.323 34.2533 304.617 33.76C303.737 33.1067 303.297 32.1467 303.297 30.88C303.297 29.6 303.743 28.5933 304.637 27.86C305.53 27.1 306.617 26.72 307.897 26.72C309.017 26.72 310.01 26.9933 310.877 27.54C311.743 28.0867 312.417 28.86 312.897 29.86L310.577 31.2C310.017 30 309.123 29.4 307.897 29.4C307.337 29.4 306.89 29.5333 306.557 29.8C306.223 30.0533 306.057 30.3867 306.057 30.8C306.057 31.24 306.237 31.6 306.597 31.88C306.997 32.16 307.703 32.4533 308.717 32.76L309.677 33.08C309.85 33.1333 310.15 33.2467 310.577 33.42C310.977 33.5667 311.27 33.7067 311.457 33.84C312.11 34.24 312.55 34.6533 312.777 35.08C313.123 35.64 313.297 36.3 313.297 37.06C313.297 38.3533 312.823 39.38 311.877 40.14C310.93 40.9 309.71 41.28 308.217 41.28ZM326.779 39.18C325.366 40.58 323.646 41.28 321.619 41.28C319.593 41.28 317.873 40.58 316.459 39.18C315.059 37.7533 314.359 36.0267 314.359 34C314.359 31.96 315.059 30.24 316.459 28.84C317.873 27.4267 319.593 26.72 321.619 26.72C323.646 26.72 325.366 27.4267 326.779 28.84C328.193 30.24 328.899 31.96 328.899 34C328.899 36.04 328.193 37.7667 326.779 39.18ZM318.399 37.3C319.253 38.1533 320.326 38.58 321.619 38.58C322.913 38.58 323.986 38.1533 324.839 37.3C325.706 36.4333 326.139 35.3333 326.139 34C326.139 32.6667 325.706 31.5667 324.839 30.7C323.973 29.8333 322.899 29.4 321.619 29.4C320.339 29.4 319.266 29.8333 318.399 30.7C317.533 31.5667 317.099 32.6667 317.099 34C317.099 35.3333 317.533 36.4333 318.399 37.3ZM344.339 25L336.339 43H335.199L343.199 25H344.339ZM350.268 27H360.568V29.64H356.788V41H354.028V29.64H350.268V27ZM366.498 41.28C365.125 41.28 363.965 40.9733 363.018 40.36C362.071 39.7467 361.398 38.9 360.998 37.82L363.358 36.44C363.905 37.8667 364.978 38.58 366.578 38.58C367.325 38.58 367.885 38.4467 368.258 38.18C368.631 37.9133 368.818 37.5533 368.818 37.1C368.818 36.6067 368.598 36.2267 368.158 35.96C367.718 35.68 366.931 35.38 365.798 35.06C364.571 34.6867 363.605 34.2533 362.898 33.76C362.018 33.1067 361.578 32.1467 361.578 30.88C361.578 29.6 362.025 28.5933 362.918 27.86C363.811 27.1 364.898 26.72 366.178 26.72C367.298 26.72 368.291 26.9933 369.158 27.54C370.025 28.0867 370.698 28.86 371.178 29.86L368.858 31.2C368.298 30 367.405 29.4 366.178 29.4C365.618 29.4 365.171 29.5333 364.838 29.8C364.505 30.0533 364.338 30.3867 364.338 30.8C364.338 31.24 364.518 31.6 364.878 31.88C365.278 32.16 365.985 32.4533 366.998 32.76L367.958 33.08C368.131 33.1333 368.431 33.2467 368.858 33.42C369.258 33.5667 369.551 33.7067 369.738 33.84C370.391 34.24 370.831 34.6533 371.058 35.08C371.405 35.64 371.578 36.3 371.578 37.06C371.578 38.3533 371.105 39.38 370.158 40.14C369.211 40.9 367.991 41.28 366.498 41.28ZM377.298 28.3L380.978 27H383.378V41H380.618V29.92L377.978 30.66L377.298 28.3ZM393.613 27L390.513 31.54C391.966 31.58 393.146 32.0533 394.053 32.96C394.959 33.8667 395.413 35.0133 395.413 36.4C395.413 37.8267 394.939 39 393.993 39.92C393.046 40.8267 391.826 41.28 390.333 41.28C388.839 41.28 387.619 40.8267 386.673 39.92C385.739 39.0267 385.273 37.8533 385.273 36.4C385.273 35.3467 385.546 34.4067 386.093 33.58L390.453 27H393.613ZM392.673 36.4C392.673 35.7333 392.453 35.1933 392.013 34.78C391.573 34.3533 391.013 34.14 390.333 34.14C389.653 34.14 389.093 34.3467 388.653 34.76C388.226 35.1733 388.013 35.72 388.013 36.4C388.013 37.08 388.226 37.6333 388.653 38.06C389.093 38.4733 389.653 38.68 390.333 38.68C391.013 38.68 391.573 38.4733 392.013 38.06C392.453 37.6333 392.673 37.08 392.673 36.4ZM405.256 31.58C405.256 32.66 404.976 33.6067 404.416 34.42H404.436L400.076 41H396.916L400.036 36.44C398.583 36.4267 397.396 35.9667 396.476 35.06C395.57 34.1533 395.116 32.9933 395.116 31.58C395.116 30.14 395.583 28.9733 396.516 28.08C397.463 27.1733 398.683 26.72 400.176 26.72C401.67 26.72 402.89 27.1733 403.836 28.08C404.783 28.9867 405.256 30.1533 405.256 31.58ZM397.856 31.58C397.856 32.26 398.076 32.8133 398.516 33.24C398.956 33.6533 399.51 33.86 400.176 33.86C400.87 33.86 401.43 33.6533 401.856 33.24C402.296 32.8133 402.516 32.26 402.516 31.58C402.516 30.9 402.296 30.3533 401.856 29.94C401.43 29.5267 400.87 29.32 400.176 29.32C399.51 29.32 398.956 29.5333 398.516 29.96C398.076 30.3733 397.856 30.9133 397.856 31.58ZM414.75 36.06H416.25V38.62H414.75V41H411.97V38.62H405.35V36.06L410.01 27H412.97L408.33 36.06H411.97V32.74H414.75V36.06ZM426.741 31.58C426.741 32.66 426.461 33.6067 425.901 34.42H425.921L421.561 41H418.401L421.521 36.44C420.067 36.4267 418.881 35.9667 417.961 35.06C417.054 34.1533 416.601 32.9933 416.601 31.58C416.601 30.14 417.067 28.9733 418.001 28.08C418.947 27.1733 420.167 26.72 421.661 26.72C423.154 26.72 424.374 27.1733 425.321 28.08C426.267 28.9867 426.741 30.1533 426.741 31.58ZM419.341 31.58C419.341 32.26 419.561 32.8133 420.001 33.24C420.441 33.6533 420.994 33.86 421.661 33.86C422.354 33.86 422.914 33.6533 423.341 33.24C423.781 32.8133 424.001 32.26 424.001 31.58C424.001 30.9 423.781 30.3533 423.341 29.94C422.914 29.5267 422.354 29.32 421.661 29.32C420.994 29.32 420.441 29.5333 420.001 29.96C419.561 30.3733 419.341 30.9133 419.341 31.58Z" fill="black"></path> <rect y="119" width="119" height="68" fill="#DDDDDD"></rect> <path d="M46.6933 160.28C45.3199 160.28 44.1599 159.973 43.2133 159.36C42.2666 158.747 41.5933 157.9 41.1933 156.82L43.5533 155.44C44.0999 156.867 45.1733 157.58 46.7733 157.58C47.5199 157.58 48.0799 157.447 48.4533 157.18C48.8266 156.913 49.0133 156.553 49.0133 156.1C49.0133 155.607 48.7933 155.227 48.3533 154.96C47.9133 154.68 47.1266 154.38 45.9933 154.06C44.7666 153.687 43.7999 153.253 43.0933 152.76C42.2133 152.107 41.7733 151.147 41.7733 149.88C41.7733 148.6 42.2199 147.593 43.1133 146.86C44.0066 146.1 45.0933 145.72 46.3733 145.72C47.4933 145.72 48.4866 145.993 49.3533 146.54C50.2199 147.087 50.8933 147.86 51.3733 148.86L49.0533 150.2C48.4933 149 47.5999 148.4 46.3733 148.4C45.8133 148.4 45.3666 148.533 45.0333 148.8C44.6999 149.053 44.5333 149.387 44.5333 149.8C44.5333 150.24 44.7133 150.6 45.0733 150.88C45.4733 151.16 46.1799 151.453 47.1933 151.76L48.1533 152.08C48.3266 152.133 48.6266 152.247 49.0533 152.42C49.4533 152.567 49.7466 152.707 49.9333 152.84C50.5866 153.24 51.0266 153.653 51.2533 154.08C51.5999 154.64 51.7733 155.3 51.7733 156.06C51.7733 157.353 51.2999 158.38 50.3533 159.14C49.4066 159.9 48.1866 160.28 46.6933 160.28ZM53.4758 146H58.6958C60.0291 146 61.1624 146.453 62.0958 147.36C63.0158 148.267 63.4758 149.38 63.4758 150.7C63.4758 152.02 63.0158 153.133 62.0958 154.04C61.1624 154.947 60.0291 155.4 58.6958 155.4H56.2358V160H53.4758V146ZM56.2358 152.82H58.6958C59.2824 152.82 59.7691 152.62 60.1558 152.22C60.5424 151.807 60.7358 151.3 60.7358 150.7C60.7358 150.087 60.5424 149.58 60.1558 149.18C59.7691 148.78 59.2824 148.58 58.6958 148.58H56.2358V152.82ZM71.815 160.28C69.7217 160.28 67.9817 159.58 66.595 158.18C65.2217 156.793 64.535 155.067 64.535 153C64.535 150.92 65.2217 149.193 66.595 147.82C67.9817 146.42 69.7217 145.72 71.815 145.72C73.0817 145.72 74.2483 146.02 75.315 146.62C76.395 147.207 77.235 148.007 77.835 149.02L75.455 150.4C75.1083 149.773 74.615 149.287 73.975 148.94C73.335 148.58 72.615 148.4 71.815 148.4C70.455 148.4 69.355 148.827 68.515 149.68C67.6883 150.547 67.275 151.653 67.275 153C67.275 154.333 67.6883 155.433 68.515 156.3C69.355 157.153 70.455 157.58 71.815 157.58C72.615 157.58 73.335 157.407 73.975 157.06C74.6283 156.7 75.1217 156.213 75.455 155.6L77.835 156.98C77.235 157.993 76.395 158.8 75.315 159.4C74.2483 159.987 73.0817 160.28 71.815 160.28Z" fill="black"></path> <rect x="122" y="119" width="119" height="68" fill="#DDDDDD"></rect> <path d="M173.211 146H176.051V160H173.311V150.92L169.371 157.42H169.051L165.111 150.94V160H162.351V146H165.191L169.211 152.62L173.211 146ZM183.225 160.28C181.851 160.28 180.691 159.973 179.745 159.36C178.798 158.747 178.125 157.9 177.725 156.82L180.085 155.44C180.631 156.867 181.705 157.58 183.305 157.58C184.051 157.58 184.611 157.447 184.985 157.18C185.358 156.913 185.545 156.553 185.545 156.1C185.545 155.607 185.325 155.227 184.885 154.96C184.445 154.68 183.658 154.38 182.525 154.06C181.298 153.687 180.331 153.253 179.625 152.76C178.745 152.107 178.305 151.147 178.305 149.88C178.305 148.6 178.751 147.593 179.645 146.86C180.538 146.1 181.625 145.72 182.905 145.72C184.025 145.72 185.018 145.993 185.885 146.54C186.751 147.087 187.425 147.86 187.905 148.86L185.585 150.2C185.025 149 184.131 148.4 182.905 148.4C182.345 148.4 181.898 148.533 181.565 148.8C181.231 149.053 181.065 149.387 181.065 149.8C181.065 150.24 181.245 150.6 181.605 150.88C182.005 151.16 182.711 151.453 183.725 151.76L184.685 152.08C184.858 152.133 185.158 152.247 185.585 152.42C185.985 152.567 186.278 152.707 186.465 152.84C187.118 153.24 187.558 153.653 187.785 154.08C188.131 154.64 188.305 155.3 188.305 156.06C188.305 157.353 187.831 158.38 186.885 159.14C185.938 159.9 184.718 160.28 183.225 160.28ZM201.89 160H198.89L198.05 157.48H192.47L191.63 160H188.65L193.55 146H196.97L201.89 160ZM195.27 149.18L193.35 154.9H197.19L195.27 149.18Z" fill="black"></path> <rect x="244" y="119" width="119" height="68" fill="#DDDDDD"></rect> <path d="M287.73 146V148.64H282.13V151.96H287.57V154.6H282.13V160H279.37V146H287.73ZM300.601 146H303.441V160H300.701V150.92L296.761 157.42H296.441L292.501 150.94V160H289.741V146H292.581L296.601 152.62L300.601 146ZM308.81 154.22V157.36H314.71V160H306.05V146H314.61V148.64H308.81V151.62H314.11V154.22H308.81ZM328.87 160H325.87L325.03 157.48H319.45L318.61 160H315.63L320.53 146H323.95L328.87 160ZM322.25 149.18L320.33 154.9H324.17L322.25 149.18Z" fill="black"></path> <rect x="366" y="119" width="119" height="68" fill="#F4F4F4"></rect> <path d="M412.404 160H409.404L408.564 157.48H402.984L402.144 160H399.164L404.064 146H407.484L412.404 160ZM405.784 149.18L403.864 154.9H407.704L405.784 149.18ZM413.763 146H418.983C420.316 146 421.45 146.453 422.383 147.36C423.303 148.267 423.763 149.38 423.763 150.7C423.763 152.02 423.303 153.133 422.383 154.04C421.45 154.947 420.316 155.4 418.983 155.4H416.523V160H413.763V146ZM416.523 152.82H418.983C419.57 152.82 420.056 152.62 420.443 152.22C420.83 151.807 421.023 151.3 421.023 150.7C421.023 150.087 420.83 149.58 420.443 149.18C420.056 148.78 419.57 148.58 418.983 148.58H416.523V152.82ZM439.362 153C439.362 154.8 438.789 156.373 437.642 157.72L439.082 159.22L437.122 160.96L435.602 159.38C434.522 159.98 433.349 160.28 432.082 160.28C430.082 160.28 428.369 159.58 426.942 158.18C425.529 156.767 424.822 155.04 424.822 153C424.822 150.96 425.529 149.24 426.942 147.84C428.355 146.427 430.069 145.72 432.082 145.72C434.095 145.72 435.809 146.427 437.222 147.84C438.649 149.24 439.362 150.96 439.362 153ZM432.082 157.58C432.615 157.58 433.135 157.493 433.642 157.32L431.342 154.92L433.302 153.18L435.762 155.74C436.322 154.94 436.602 154.027 436.602 153C436.602 151.667 436.169 150.567 435.302 149.7C434.435 148.833 433.362 148.4 432.082 148.4C430.802 148.4 429.729 148.833 428.862 149.7C427.995 150.567 427.562 151.667 427.562 153C427.562 154.32 427.995 155.413 428.862 156.28C429.729 157.147 430.802 157.58 432.082 157.58ZM441.4 146H446.62C447.953 146 449.086 146.453 450.02 147.36C450.94 148.267 451.4 149.38 451.4 150.7C451.4 152.02 450.94 153.133 450.02 154.04C449.086 154.947 447.953 155.4 446.62 155.4H444.16V160H441.4V146ZM444.16 152.82H446.62C447.206 152.82 447.693 152.62 448.08 152.22C448.466 151.807 448.66 151.3 448.66 150.7C448.66 150.087 448.466 149.58 448.08 149.18C447.693 148.78 447.206 148.58 446.62 148.58H444.16V152.82Z" fill="black"></path> <rect x="488" y="119" width="119" height="68" fill="#F4F4F4"></rect> <path d="M525.138 146H530.358C531.691 146 532.825 146.453 533.758 147.36C534.678 148.267 535.138 149.38 535.138 150.7C535.138 152.02 534.678 153.133 533.758 154.04C532.825 154.947 531.691 155.4 530.358 155.4H527.898V160H525.138V146ZM527.898 152.82H530.358C530.945 152.82 531.431 152.62 531.818 152.22C532.205 151.807 532.398 151.3 532.398 150.7C532.398 150.087 532.205 149.58 531.818 149.18C531.431 148.78 530.945 148.58 530.358 148.58H527.898V152.82ZM536.935 146H542.155C543.488 146 544.621 146.453 545.555 147.36C546.475 148.267 546.935 149.38 546.935 150.7C546.935 152.02 546.475 153.133 545.555 154.04C544.621 154.947 543.488 155.4 542.155 155.4H539.695V160H536.935V146ZM539.695 152.82H542.155C542.741 152.82 543.228 152.62 543.615 152.22C544.001 151.807 544.195 151.3 544.195 150.7C544.195 150.087 544.001 149.58 543.615 149.18C543.228 148.78 542.741 148.58 542.155 148.58H539.695V152.82ZM559.306 160H556.306L555.466 157.48H549.886L549.046 160H546.066L550.966 146H554.386L559.306 160ZM552.686 149.18L550.766 154.9H554.606L552.686 149.18ZM560.665 146H565.885C567.219 146 568.352 146.453 569.285 147.36C570.205 148.267 570.665 149.38 570.665 150.7C570.665 152.02 570.205 153.133 569.285 154.04C568.352 154.947 567.219 155.4 565.885 155.4H563.425V160H560.665V146ZM563.425 152.82H565.885C566.472 152.82 566.959 152.62 567.345 152.22C567.732 151.807 567.925 151.3 567.925 150.7C567.925 150.087 567.732 149.58 567.345 149.18C566.959 148.78 566.472 148.58 565.885 148.58H563.425V152.82Z" fill="black"></path> <rect x="610" y="119" width="119" height="68" fill="#A6A6A6"></rect> <path d="M664.583 153C664.583 154.8 664.009 156.373 662.863 157.72L664.303 159.22L662.343 160.96L660.823 159.38C659.743 159.98 658.569 160.28 657.303 160.28C655.303 160.28 653.589 159.58 652.163 158.18C650.749 156.767 650.043 155.04 650.043 153C650.043 150.96 650.749 149.24 652.163 147.84C653.576 146.427 655.289 145.72 657.303 145.72C659.316 145.72 661.029 146.427 662.443 147.84C663.869 149.24 664.583 150.96 664.583 153ZM657.303 157.58C657.836 157.58 658.356 157.493 658.863 157.32L656.563 154.92L658.523 153.18L660.983 155.74C661.543 154.94 661.823 154.027 661.823 153C661.823 151.667 661.389 150.567 660.523 149.7C659.656 148.833 658.583 148.4 657.303 148.4C656.023 148.4 654.949 148.833 654.083 149.7C653.216 150.567 652.783 151.667 652.783 153C652.783 154.32 653.216 155.413 654.083 156.28C654.949 157.147 656.023 157.58 657.303 157.58ZM670.893 160.28C669.519 160.28 668.359 159.973 667.413 159.36C666.466 158.747 665.793 157.9 665.393 156.82L667.752 155.44C668.299 156.867 669.373 157.58 670.973 157.58C671.719 157.58 672.279 157.447 672.653 157.18C673.026 156.913 673.213 156.553 673.213 156.1C673.213 155.607 672.993 155.227 672.553 154.96C672.113 154.68 671.326 154.38 670.193 154.06C668.966 153.687 667.999 153.253 667.293 152.76C666.413 152.107 665.973 151.147 665.973 149.88C665.973 148.6 666.419 147.593 667.312 146.86C668.206 146.1 669.293 145.72 670.573 145.72C671.693 145.72 672.686 145.993 673.553 146.54C674.419 147.087 675.093 147.86 675.573 148.86L673.253 150.2C672.693 149 671.799 148.4 670.573 148.4C670.013 148.4 669.566 148.533 669.233 148.8C668.899 149.053 668.733 149.387 668.733 149.8C668.733 150.24 668.913 150.6 669.273 150.88C669.673 151.16 670.379 151.453 671.393 151.76L672.353 152.08C672.526 152.133 672.826 152.247 673.253 152.42C673.653 152.567 673.946 152.707 674.133 152.84C674.786 153.24 675.226 153.653 675.453 154.08C675.799 154.64 675.973 155.3 675.973 156.06C675.973 157.353 675.499 158.38 674.553 159.14C673.606 159.9 672.386 160.28 670.893 160.28ZM689.558 160H686.558L685.718 157.48H680.138L679.298 160H676.318L681.218 146H684.638L689.558 160ZM682.938 149.18L681.018 154.9H684.858L682.938 149.18Z" fill="black"></path> <line x1="59" y1="92.5" x2="671" y2="92.4999" stroke="black"></line> <path d="M362.646 89.3536C362.842 89.5488 363.158 89.5488 363.354 89.3536L366.536 86.1716C366.731 85.9763 366.731 85.6597 366.536 85.4645C366.34 85.2692 366.024 85.2692 365.828 85.4645L363 88.2929L360.172 85.4645C359.976 85.2692 359.66 85.2692 359.464 85.4645C359.269 85.6597 359.269 85.9763 359.464 86.1716L362.646 89.3536ZM362.5 68L362.5 89L363.5 89L363.5 68L362.5 68Z" fill="black"></path> <path d="M59.6464 114.354C59.8417 114.549 60.1583 114.549 60.3536 114.354L63.5355 111.172C63.7308 110.976 63.7308 110.66 63.5355 110.464C63.3403 110.269 63.0237 110.269 62.8284 110.464L60 113.293L57.1716 110.464C56.9763 110.269 56.6597 110.269 56.4645 110.464C56.2692 110.66 56.2692 110.976 56.4645 111.172L59.6464 114.354ZM59.5 93L59.5 114L60.5 114L60.5 93L59.5 93Z" fill="black"></path> <path d="M181.646 114.354C181.842 114.549 182.158 114.549 182.354 114.354L185.536 111.172C185.731 110.976 185.731 110.66 185.536 110.464C185.34 110.269 185.024 110.269 184.828 110.464L182 113.293L179.172 110.464C178.976 110.269 178.66 110.269 178.464 110.464C178.269 110.66 178.269 110.976 178.464 111.172L181.646 114.354ZM181.5 93L181.5 114L182.5 114L182.5 93L181.5 93Z" fill="black"></path> <path d="M303.646 114.354C303.842 114.549 304.158 114.549 304.354 114.354L307.536 111.172C307.731 110.976 307.731 110.66 307.536 110.464C307.34 110.269 307.024 110.269 306.828 110.464L304 113.293L301.172 110.464C300.976 110.269 300.66 110.269 300.464 110.464C300.269 110.66 300.269 110.976 300.464 111.172L303.646 114.354ZM303.5 93L303.5 114L304.5 114L304.5 93L303.5 93Z" fill="black"></path> <path d="M425.646 114.354C425.842 114.549 426.158 114.549 426.354 114.354L429.536 111.172C429.731 110.976 429.731 110.66 429.536 110.464C429.34 110.269 429.024 110.269 428.828 110.464L426 113.293L423.172 110.464C422.976 110.269 422.66 110.269 422.464 110.464C422.269 110.66 422.269 110.976 422.464 111.172L425.646 114.354ZM425.5 93L425.5 114L426.5 114L426.5 93L425.5 93Z" fill="black"></path> <path d="M547.646 114.354C547.842 114.549 548.158 114.549 548.354 114.354L551.536 111.172C551.731 110.976 551.731 110.66 551.536 110.464C551.34 110.269 551.024 110.269 550.828 110.464L548 113.293L545.172 110.464C544.976 110.269 544.66 110.269 544.464 110.464C544.269 110.66 544.269 110.976 544.464 111.172L547.646 114.354ZM547.5 93L547.5 114L548.5 114L548.5 93L547.5 93Z" fill="black"></path> <path d="M669.646 114.354C669.842 114.549 670.158 114.549 670.354 114.354L673.536 111.172C673.731 110.976 673.731 110.66 673.536 110.464C673.34 110.269 673.024 110.269 672.828 110.464L670 113.293L667.172 110.464C666.976 110.269 666.66 110.269 666.464 110.464C666.269 110.66 666.269 110.976 666.464 111.172L669.646 114.354ZM669.5 93L669.5 114L670.5 114L670.5 93L669.5 93Z" fill="black"></path> </svg> 