<?xml version="1.0" encoding="UTF-8"?> <svg xmlns="http://www.w3.org/2000/svg" width="194" height="79" viewBox="0 0 194 79" fill="none"> <path d="M15.1705 53.284V49.6H16.0105V58H15.1705V54.076H10.6105V58H9.77055V49.6H10.6105V53.284H15.1705ZM22.9668 53.176V52H23.7588V58H22.9668V56.824C22.4148 57.704 21.6068 58.144 20.5428 58.144C19.6868 58.144 18.9548 57.84 18.3468 57.232C17.7468 56.624 17.4468 55.88 17.4468 55C17.4468 54.12 17.7468 53.376 18.3468 52.768C18.9548 52.16 19.6868 51.856 20.5428 51.856C21.6068 51.856 22.4148 52.296 22.9668 53.176ZM18.9228 56.692C19.3788 57.148 19.9388 57.376 20.6028 57.376C21.2668 57.376 21.8268 57.148 22.2828 56.692C22.7388 56.22 22.9668 55.656 22.9668 55C22.9668 54.336 22.7388 53.776 22.2828 53.32C21.8268 52.856 21.2668 52.624 20.6028 52.624C19.9388 52.624 19.3788 52.856 18.9228 53.32C18.4668 53.776 18.2388 54.336 18.2388 55C18.2388 55.656 18.4668 56.22 18.9228 56.692ZM29.2517 54.916C29.9077 55.156 30.2357 55.624 30.2357 56.32C30.2357 56.816 30.0677 57.22 29.7317 57.532C29.4037 57.844 28.9437 58 28.3517 58H25.4357V52H28.1117C28.6877 52 29.1357 52.148 29.4557 52.444C29.7837 52.74 29.9477 53.128 29.9477 53.608C29.9477 54.208 29.7157 54.644 29.2517 54.916ZM28.1117 52.768H26.2277V54.592H28.1117C28.8077 54.592 29.1557 54.28 29.1557 53.656C29.1557 53.376 29.0637 53.16 28.8797 53.008C28.7037 52.848 28.4477 52.768 28.1117 52.768ZM26.2277 57.232H28.3517C28.7037 57.232 28.9717 57.148 29.1557 56.98C29.3477 56.812 29.4437 56.576 29.4437 56.272C29.4437 55.984 29.3477 55.76 29.1557 55.6C28.9717 55.44 28.7037 55.36 28.3517 55.36H26.2277V57.232ZM34.2077 51.856C35.1037 51.856 35.8197 52.172 36.3557 52.804C36.9077 53.428 37.1837 54.168 37.1837 55.024C37.1837 55.064 37.1757 55.188 37.1597 55.396H31.8917C31.9717 55.996 32.2277 56.476 32.6597 56.836C33.0917 57.196 33.6317 57.376 34.2797 57.376C35.1917 57.376 35.8357 57.036 36.2117 56.356L36.9077 56.764C36.6437 57.196 36.2797 57.536 35.8157 57.784C35.3597 58.024 34.8437 58.144 34.2677 58.144C33.3237 58.144 32.5557 57.848 31.9637 57.256C31.3717 56.664 31.0757 55.912 31.0757 55C31.0757 54.096 31.3677 53.348 31.9517 52.756C32.5357 52.156 33.2877 51.856 34.2077 51.856ZM34.2077 52.624C33.5837 52.624 33.0597 52.808 32.6357 53.176C32.2197 53.544 31.9717 54.028 31.8917 54.628H36.3677C36.2797 53.988 36.0357 53.496 35.6357 53.152C35.2197 52.8 34.7437 52.624 34.2077 52.624ZM43.2491 52V57.232H44.0891V59.608H43.2971V58H38.4011V59.608H37.6091V57.232H38.3411C38.7491 56.688 38.9531 55.932 38.9531 54.964V52H43.2491ZM39.3011 57.232H42.4571V52.768H39.7451V54.964C39.7451 55.892 39.5971 56.648 39.3011 57.232ZM46.0793 56.62L49.6553 52H50.3273V58H49.5353V53.38L45.9593 58H45.2873V52H46.0793V56.62ZM51.2821 52H56.3221V52.768H54.1981V58H53.4061V52.768H51.2821V52ZM59.8249 51.856C60.7209 51.856 61.4369 52.172 61.9729 52.804C62.5249 53.428 62.8009 54.168 62.8009 55.024C62.8009 55.064 62.7929 55.188 62.7769 55.396H57.5089C57.5889 55.996 57.8449 56.476 58.2769 56.836C58.7089 57.196 59.2489 57.376 59.8969 57.376C60.8089 57.376 61.4529 57.036 61.8289 56.356L62.5249 56.764C62.2609 57.196 61.8969 57.536 61.4329 57.784C60.9769 58.024 60.4609 58.144 59.8849 58.144C58.9409 58.144 58.1729 57.848 57.5809 57.256C56.9889 56.664 56.6929 55.912 56.6929 55C56.6929 54.096 56.9849 53.348 57.5689 52.756C58.1529 52.156 58.9049 51.856 59.8249 51.856ZM59.8249 52.624C59.2009 52.624 58.6769 52.808 58.2529 53.176C57.8369 53.544 57.5889 54.028 57.5089 54.628H61.9849C61.8969 53.988 61.6529 53.496 61.2529 53.152C60.8369 52.8 60.3609 52.624 59.8249 52.624ZM71.3087 54.616V52H72.1007V58H71.3087V55.384H67.8527V58H67.0607V52H67.8527V54.616H71.3087ZM78.9355 53.176V52H79.7275V58H78.9355V56.824C78.3835 57.704 77.5755 58.144 76.5115 58.144C75.6555 58.144 74.9235 57.84 74.3155 57.232C73.7155 56.624 73.4155 55.88 73.4155 55C73.4155 54.12 73.7155 53.376 74.3155 52.768C74.9235 52.16 75.6555 51.856 76.5115 51.856C77.5755 51.856 78.3835 52.296 78.9355 53.176ZM74.8915 56.692C75.3475 57.148 75.9075 57.376 76.5715 57.376C77.2355 57.376 77.7955 57.148 78.2515 56.692C78.7075 56.22 78.9355 55.656 78.9355 55C78.9355 54.336 78.7075 53.776 78.2515 53.32C77.7955 52.856 77.2355 52.624 76.5715 52.624C75.9075 52.624 75.3475 52.856 74.8915 53.32C74.4355 53.776 74.2075 54.336 74.2075 55C74.2075 55.656 74.4355 56.22 74.8915 56.692ZM85.0285 52H89.3245V58H88.5325V52.768H85.8205V55.444C85.8205 56.444 85.6285 57.132 85.2445 57.508C84.8685 57.884 84.3485 58.048 83.6845 58V57.256C84.1485 57.304 84.4885 57.192 84.7045 56.92C84.9205 56.648 85.0285 56.156 85.0285 55.444V52ZM96.1261 51.856C97.0061 51.856 97.7501 52.16 98.3581 52.768C98.9741 53.368 99.2821 54.112 99.2821 55C99.2821 55.88 98.9741 56.628 98.3581 57.244C97.7421 57.844 96.9981 58.144 96.1261 58.144C95.3261 58.144 94.6301 57.884 94.0381 57.364C93.4541 56.828 93.1221 56.168 93.0421 55.384H91.7941V58H91.0021V52H91.7941V54.616H93.0421C93.1301 53.824 93.4621 53.168 94.0381 52.648C94.6221 52.12 95.3181 51.856 96.1261 51.856ZM94.4461 56.692C94.9021 57.148 95.4621 57.376 96.1261 57.376C96.7901 57.376 97.3501 57.148 97.8061 56.692C98.2621 56.22 98.4901 55.656 98.4901 55C98.4901 54.336 98.2621 53.776 97.8061 53.32C97.3501 52.856 96.7901 52.624 96.1261 52.624C95.4621 52.624 94.9021 52.856 94.4461 53.32C93.9901 53.776 93.7621 54.336 93.7621 55C93.7621 55.656 93.9901 56.22 94.4461 56.692ZM103.264 58.144C102.408 58.144 101.688 57.86 101.104 57.292C100.528 56.716 100.24 55.972 100.24 55.06C100.24 54.036 100.392 53.252 100.696 52.708C101 52.156 101.616 51.656 102.544 51.208C102.84 51.072 103.072 50.968 103.24 50.896C103.52 50.784 103.74 50.688 103.9 50.608C104.596 50.288 104.948 49.892 104.956 49.42L105.58 49.78C105.54 49.98 105.476 50.16 105.388 50.32C105.284 50.496 105.18 50.636 105.076 50.74C104.98 50.844 104.828 50.956 104.62 51.076C104.484 51.156 104.32 51.244 104.128 51.34L103.528 51.592L102.964 51.832C102.412 52.072 102 52.324 101.728 52.588C101.464 52.844 101.276 53.18 101.164 53.596C101.42 53.252 101.756 52.992 102.172 52.816C102.588 52.632 103.008 52.54 103.432 52.54C104.232 52.54 104.892 52.804 105.412 53.332C105.94 53.852 106.204 54.52 106.204 55.336C106.204 56.144 105.924 56.816 105.364 57.352C104.812 57.88 104.112 58.144 103.264 58.144ZM101.704 56.764C102.12 57.156 102.64 57.352 103.264 57.352C103.888 57.352 104.4 57.164 104.8 56.788C105.208 56.404 105.412 55.92 105.412 55.336C105.412 54.744 105.22 54.26 104.836 53.884C104.46 53.5 103.956 53.308 103.324 53.308C102.756 53.308 102.24 53.488 101.776 53.848C101.312 54.192 101.08 54.664 101.08 55.264C101.08 55.872 101.288 56.372 101.704 56.764ZM112.436 57.244C111.82 57.844 111.076 58.144 110.204 58.144C109.316 58.144 108.568 57.844 107.96 57.244C107.352 56.636 107.048 55.888 107.048 55C107.048 54.112 107.352 53.368 107.96 52.768C108.568 52.16 109.316 51.856 110.204 51.856C111.084 51.856 111.828 52.16 112.436 52.768C113.052 53.368 113.36 54.112 113.36 55C113.36 55.88 113.052 56.628 112.436 57.244ZM108.524 56.692C108.98 57.148 109.54 57.376 110.204 57.376C110.868 57.376 111.428 57.148 111.884 56.692C112.34 56.22 112.568 55.656 112.568 55C112.568 54.336 112.34 53.776 111.884 53.32C111.428 52.856 110.868 52.624 110.204 52.624C109.54 52.624 108.98 52.856 108.524 53.32C108.068 53.776 107.84 54.336 107.84 55C107.84 55.656 108.068 56.22 108.524 56.692ZM118.766 51.04H115.646V50.344H118.766V51.04ZM115.478 56.62L119.054 52H119.726V58H118.934V53.38L115.358 58H114.686V52H115.478V56.62ZM125.193 56.62L128.769 52H129.441V58H128.649V53.38L125.073 58H124.401V52H125.193V56.62ZM134.211 54.916C134.907 55.18 135.255 55.66 135.255 56.356C135.255 56.86 135.059 57.284 134.667 57.628C134.291 57.972 133.739 58.144 133.011 58.144C131.795 58.144 131.003 57.664 130.635 56.704L131.307 56.308C131.563 57.02 132.131 57.376 133.011 57.376C133.467 57.376 133.823 57.28 134.079 57.088C134.335 56.888 134.463 56.628 134.463 56.308C134.463 56.02 134.359 55.792 134.151 55.624C133.943 55.448 133.663 55.36 133.311 55.36H132.435V54.592H133.071C133.415 54.592 133.683 54.508 133.875 54.34C134.075 54.164 134.175 53.924 134.175 53.62C134.175 53.332 134.055 53.096 133.815 52.912C133.583 52.72 133.275 52.624 132.891 52.624C132.147 52.624 131.647 52.924 131.391 53.524L130.731 53.14C131.131 52.284 131.851 51.856 132.891 51.856C133.531 51.856 134.035 52.024 134.403 52.36C134.779 52.688 134.967 53.092 134.967 53.572C134.967 54.188 134.715 54.636 134.211 54.916ZM139.459 52H144.499V58H143.707V52.768H140.251V58H139.459V52ZM148.55 57.028L150.494 52H151.334L148.766 58.552C148.526 59.16 148.19 59.628 147.758 59.956C147.334 60.292 146.862 60.44 146.342 60.4V59.656C147.062 59.744 147.61 59.328 147.986 58.408L148.142 58.036L145.454 52H146.294L148.55 57.028ZM156.539 54.616V52H157.331V58H156.539V55.384H153.083V58H152.291V52H153.083V54.616H156.539ZM160.638 54.88L163.854 58H162.798L159.798 55.108V58H159.006V52H159.798V54.652L162.654 52H163.734L160.638 54.88ZM164.216 52H169.256V52.768H167.132V58H166.34V52.768H164.216V52ZM175.014 57.244C174.398 57.844 173.654 58.144 172.782 58.144C171.894 58.144 171.146 57.844 170.538 57.244C169.93 56.636 169.626 55.888 169.626 55C169.626 54.112 169.93 53.368 170.538 52.768C171.146 52.16 171.894 51.856 172.782 51.856C173.662 51.856 174.406 52.16 175.014 52.768C175.63 53.368 175.938 54.112 175.938 55C175.938 55.88 175.63 56.628 175.014 57.244ZM171.102 56.692C171.558 57.148 172.118 57.376 172.782 57.376C173.446 57.376 174.006 57.148 174.462 56.692C174.918 56.22 175.146 55.656 175.146 55C175.146 54.336 174.918 53.776 174.462 53.32C174.006 52.856 173.446 52.624 172.782 52.624C172.118 52.624 171.558 52.856 171.102 53.32C170.646 53.776 170.418 54.336 170.418 55C170.418 55.656 170.646 56.22 171.102 56.692ZM181.08 54.916C181.736 55.156 182.064 55.624 182.064 56.32C182.064 56.816 181.896 57.22 181.56 57.532C181.232 57.844 180.772 58 180.18 58H177.264V52H179.94C180.516 52 180.964 52.148 181.284 52.444C181.612 52.74 181.776 53.128 181.776 53.608C181.776 54.208 181.544 54.644 181.08 54.916ZM179.94 52.768H178.056V54.592H179.94C180.636 54.592 180.984 54.28 180.984 53.656C180.984 53.376 180.892 53.16 180.708 53.008C180.532 52.848 180.276 52.768 179.94 52.768ZM178.056 57.232H180.18C180.532 57.232 180.8 57.148 180.984 56.98C181.176 56.812 181.272 56.576 181.272 56.272C181.272 55.984 181.176 55.76 180.984 55.6C180.8 55.44 180.532 55.36 180.18 55.36H178.056V57.232ZM183.507 56.98H184.467L183.747 59.68H183.027L183.507 56.98ZM32.1538 70.988V68H32.9458V74H32.1538V71.72C31.6898 71.96 31.1178 72.08 30.4378 72.08C29.6458 72.08 29.0458 71.9 28.6378 71.54C28.2298 71.172 28.0258 70.632 28.0258 69.92V68H28.8178V69.92C28.8178 70.416 28.9458 70.776 29.2018 71C29.4658 71.224 29.8698 71.336 30.4138 71.336C31.0218 71.336 31.6018 71.22 32.1538 70.988ZM33.9091 68H38.9491V68.768H36.8251V74H36.0331V68.768H33.9091V68ZM44.7078 73.244C44.0918 73.844 43.3478 74.144 42.4758 74.144C41.5878 74.144 40.8398 73.844 40.2318 73.244C39.6238 72.636 39.3198 71.888 39.3198 71C39.3198 70.112 39.6238 69.368 40.2318 68.768C40.8398 68.16 41.5878 67.856 42.4758 67.856C43.3558 67.856 44.0998 68.16 44.7078 68.768C45.3238 69.368 45.6318 70.112 45.6318 71C45.6318 71.88 45.3238 72.628 44.7078 73.244ZM40.7958 72.692C41.2518 73.148 41.8118 73.376 42.4758 73.376C43.1398 73.376 43.6998 73.148 44.1558 72.692C44.6118 72.22 44.8398 71.656 44.8398 71C44.8398 70.336 44.6118 69.776 44.1558 69.32C43.6998 68.856 43.1398 68.624 42.4758 68.624C41.8118 68.624 41.2518 68.856 40.7958 69.32C40.3398 69.776 40.1118 70.336 40.1118 71C40.1118 71.656 40.3398 72.22 40.7958 72.692ZM49.6212 74.144C48.7652 74.144 48.0452 73.86 47.4612 73.292C46.8852 72.716 46.5972 71.972 46.5972 71.06C46.5972 70.036 46.7492 69.252 47.0532 68.708C47.3572 68.156 47.9732 67.656 48.9012 67.208C49.1972 67.072 49.4292 66.968 49.5972 66.896C49.8772 66.784 50.0972 66.688 50.2572 66.608C50.9532 66.288 51.3052 65.892 51.3132 65.42L51.9372 65.78C51.8972 65.98 51.8332 66.16 51.7452 66.32C51.6412 66.496 51.5372 66.636 51.4332 66.74C51.3372 66.844 51.1852 66.956 50.9772 67.076C50.8412 67.156 50.6772 67.244 50.4852 67.34L49.8852 67.592L49.3212 67.832C48.7692 68.072 48.3572 68.324 48.0852 68.588C47.8212 68.844 47.6332 69.18 47.5212 69.596C47.7772 69.252 48.1132 68.992 48.5292 68.816C48.9452 68.632 49.3652 68.54 49.7892 68.54C50.5892 68.54 51.2492 68.804 51.7692 69.332C52.2972 69.852 52.5612 70.52 52.5612 71.336C52.5612 72.144 52.2812 72.816 51.7212 73.352C51.1692 73.88 50.4692 74.144 49.6212 74.144ZM48.0612 72.764C48.4772 73.156 48.9972 73.352 49.6212 73.352C50.2452 73.352 50.7572 73.164 51.1572 72.788C51.5652 72.404 51.7692 71.92 51.7692 71.336C51.7692 70.744 51.5772 70.26 51.1932 69.884C50.8172 69.5 50.3132 69.308 49.6812 69.308C49.1132 69.308 48.5972 69.488 48.1332 69.848C47.6692 70.192 47.4372 70.664 47.4372 71.264C47.4372 71.872 47.6452 72.372 48.0612 72.764ZM54.5578 70.28H56.2018C56.7538 70.28 57.2258 70.456 57.6178 70.808C58.0098 71.152 58.2058 71.596 58.2058 72.14C58.2058 72.692 58.0098 73.14 57.6178 73.484C57.2418 73.828 56.7698 74 56.2018 74H53.7658V68H54.5578V70.28ZM59.0458 74V68H59.8378V74H59.0458ZM54.5578 73.232H56.2018C56.5458 73.232 56.8338 73.132 57.0658 72.932C57.2978 72.724 57.4138 72.46 57.4138 72.14C57.4138 71.82 57.2978 71.56 57.0658 71.36C56.8338 71.152 56.5458 71.048 56.2018 71.048H54.5578V73.232ZM66.8996 73.028L68.8436 68H69.6836L67.1156 74.552C66.8756 75.16 66.5396 75.628 66.1076 75.956C65.6836 76.292 65.2116 76.44 64.6916 76.4V75.656C65.4116 75.744 65.9596 75.328 66.3356 74.408L66.4916 74.036L63.8036 68H64.6436L66.8996 73.028ZM73.6196 70.916C74.3156 71.18 74.6636 71.66 74.6636 72.356C74.6636 72.86 74.4676 73.284 74.0756 73.628C73.6996 73.972 73.1476 74.144 72.4196 74.144C71.2036 74.144 70.4116 73.664 70.0436 72.704L70.7156 72.308C70.9716 73.02 71.5396 73.376 72.4196 73.376C72.8756 73.376 73.2316 73.28 73.4876 73.088C73.7436 72.888 73.8716 72.628 73.8716 72.308C73.8716 72.02 73.7676 71.792 73.5596 71.624C73.3516 71.448 73.0716 71.36 72.7196 71.36H71.8436V70.592H72.4796C72.8236 70.592 73.0916 70.508 73.2836 70.34C73.4836 70.164 73.5836 69.924 73.5836 69.62C73.5836 69.332 73.4636 69.096 73.2236 68.912C72.9916 68.72 72.6836 68.624 72.2996 68.624C71.5556 68.624 71.0556 68.924 70.7996 69.524L70.1396 69.14C70.5396 68.284 71.2596 67.856 72.2996 67.856C72.9396 67.856 73.4436 68.024 73.8116 68.36C74.1876 68.688 74.3756 69.092 74.3756 69.572C74.3756 70.188 74.1236 70.636 73.6196 70.916ZM80.1153 70.616V68H80.9073V74H80.1153V71.384H76.6593V74H75.8673V68H76.6593V70.616H80.1153ZM87.7422 69.176V68H88.5342V74H87.7422V72.824C87.1902 73.704 86.3822 74.144 85.3182 74.144C84.4622 74.144 83.7302 73.84 83.1222 73.232C82.5222 72.624 82.2222 71.88 82.2222 71C82.2222 70.12 82.5222 69.376 83.1222 68.768C83.7302 68.16 84.4622 67.856 85.3182 67.856C86.3822 67.856 87.1902 68.296 87.7422 69.176ZM83.6982 72.692C84.1542 73.148 84.7142 73.376 85.3782 73.376C86.0422 73.376 86.6022 73.148 87.0582 72.692C87.5142 72.22 87.7422 71.656 87.7422 71C87.7422 70.336 87.5142 69.776 87.0582 69.32C86.6022 68.856 86.0422 68.624 85.3782 68.624C84.7142 68.624 84.1542 68.856 83.6982 69.32C83.2422 69.776 83.0142 70.336 83.0142 71C83.0142 71.656 83.2422 72.22 83.6982 72.692ZM89.4911 68H94.5311V68.768H92.4071V74H91.6151V68.768H89.4911V68ZM96.2883 70.28H97.9323C98.4843 70.28 98.9563 70.456 99.3483 70.808C99.7403 71.152 99.9363 71.596 99.9363 72.14C99.9363 72.692 99.7403 73.14 99.3483 73.484C98.9723 73.828 98.5003 74 97.9323 74H95.4963V68H96.2883V70.28ZM96.2883 73.232H97.9323C98.2763 73.232 98.5643 73.132 98.7963 72.932C99.0283 72.724 99.1443 72.46 99.1443 72.14C99.1443 71.82 99.0283 71.56 98.7963 71.36C98.5643 71.152 98.2763 71.048 97.9323 71.048H96.2883V73.232ZM104.133 68H109.173V74H108.381V68.768H104.925V74H104.133V68ZM115.876 73.244C115.26 73.844 114.516 74.144 113.644 74.144C112.756 74.144 112.008 73.844 111.4 73.244C110.792 72.636 110.488 71.888 110.488 71C110.488 70.112 110.792 69.368 111.4 68.768C112.008 68.16 112.756 67.856 113.644 67.856C114.524 67.856 115.268 68.16 115.876 68.768C116.492 69.368 116.8 70.112 116.8 71C116.8 71.88 116.492 72.628 115.876 73.244ZM111.964 72.692C112.42 73.148 112.98 73.376 113.644 73.376C114.308 73.376 114.868 73.148 115.324 72.692C115.78 72.22 116.008 71.656 116.008 71C116.008 70.336 115.78 69.776 115.324 69.32C114.868 68.856 114.308 68.624 113.644 68.624C112.98 68.624 112.42 68.856 111.964 69.32C111.508 69.776 111.28 70.336 111.28 71C111.28 71.656 111.508 72.22 111.964 72.692ZM122.931 68V73.232H123.771V75.608H122.979V74H118.083V75.608H117.291V73.232H118.023C118.431 72.688 118.635 71.932 118.635 70.964V68H122.931ZM118.983 73.232H122.139V68.768H119.427V70.964C119.427 71.892 119.279 72.648 118.983 73.232ZM128.185 67.856C129.041 67.856 129.769 68.16 130.369 68.768C130.977 69.376 131.281 70.12 131.281 71C131.281 71.88 130.977 72.624 130.369 73.232C129.769 73.84 129.041 74.144 128.185 74.144C127.121 74.144 126.313 73.704 125.761 72.824V76.4H124.969V68H125.761V69.176C126.313 68.296 127.121 67.856 128.185 67.856ZM126.445 72.692C126.901 73.148 127.461 73.376 128.125 73.376C128.789 73.376 129.349 73.148 129.805 72.692C130.261 72.22 130.489 71.656 130.489 71C130.489 70.336 130.261 69.776 129.805 69.32C129.349 68.856 128.789 68.624 128.125 68.624C127.461 68.624 126.901 68.856 126.445 69.32C125.989 69.776 125.761 70.336 125.761 71C125.761 71.656 125.989 72.22 126.445 72.692ZM137.626 73.244C137.01 73.844 136.266 74.144 135.394 74.144C134.506 74.144 133.758 73.844 133.15 73.244C132.542 72.636 132.238 71.888 132.238 71C132.238 70.112 132.542 69.368 133.15 68.768C133.758 68.16 134.506 67.856 135.394 67.856C136.274 67.856 137.018 68.16 137.626 68.768C138.242 69.368 138.55 70.112 138.55 71C138.55 71.88 138.242 72.628 137.626 73.244ZM133.714 72.692C134.17 73.148 134.73 73.376 135.394 73.376C136.058 73.376 136.618 73.148 137.074 72.692C137.53 72.22 137.758 71.656 137.758 71C137.758 70.336 137.53 69.776 137.074 69.32C136.618 68.856 136.058 68.624 135.394 68.624C134.73 68.624 134.17 68.856 133.714 69.32C133.258 69.776 133.03 70.336 133.03 71C133.03 71.656 133.258 72.22 133.714 72.692ZM142.539 74.144C141.683 74.144 140.963 73.86 140.379 73.292C139.803 72.716 139.515 71.972 139.515 71.06C139.515 70.036 139.667 69.252 139.971 68.708C140.275 68.156 140.891 67.656 141.819 67.208C142.115 67.072 142.347 66.968 142.515 66.896C142.795 66.784 143.015 66.688 143.175 66.608C143.871 66.288 144.223 65.892 144.231 65.42L144.855 65.78C144.815 65.98 144.751 66.16 144.663 66.32C144.559 66.496 144.455 66.636 144.351 66.74C144.255 66.844 144.103 66.956 143.895 67.076C143.759 67.156 143.595 67.244 143.403 67.34L142.803 67.592L142.239 67.832C141.687 68.072 141.275 68.324 141.003 68.588C140.739 68.844 140.551 69.18 140.439 69.596C140.695 69.252 141.031 68.992 141.447 68.816C141.863 68.632 142.283 68.54 142.707 68.54C143.507 68.54 144.167 68.804 144.687 69.332C145.215 69.852 145.479 70.52 145.479 71.336C145.479 72.144 145.199 72.816 144.639 73.352C144.087 73.88 143.387 74.144 142.539 74.144ZM140.979 72.764C141.395 73.156 141.915 73.352 142.539 73.352C143.163 73.352 143.675 73.164 144.075 72.788C144.483 72.404 144.687 71.92 144.687 71.336C144.687 70.744 144.495 70.26 144.111 69.884C143.735 69.5 143.231 69.308 142.599 69.308C142.031 69.308 141.515 69.488 141.051 69.848C140.587 70.192 140.355 70.664 140.355 71.264C140.355 71.872 140.563 72.372 140.979 72.764ZM150.932 70.616V68H151.724V74H150.932V71.384H147.476V74H146.684V68H147.476V70.616H150.932ZM156.171 67.856C157.067 67.856 157.783 68.172 158.319 68.804C158.871 69.428 159.147 70.168 159.147 71.024C159.147 71.064 159.139 71.188 159.123 71.396H153.855C153.935 71.996 154.191 72.476 154.623 72.836C155.055 73.196 155.595 73.376 156.243 73.376C157.155 73.376 157.799 73.036 158.175 72.356L158.871 72.764C158.607 73.196 158.243 73.536 157.779 73.784C157.323 74.024 156.807 74.144 156.231 74.144C155.287 74.144 154.519 73.848 153.927 73.256C153.335 72.664 153.039 71.912 153.039 71C153.039 70.096 153.331 69.348 153.915 68.756C154.499 68.156 155.251 67.856 156.171 67.856ZM156.171 68.624C155.547 68.624 155.023 68.808 154.599 69.176C154.183 69.544 153.935 70.028 153.855 70.628H158.331C158.243 69.988 157.999 69.496 157.599 69.152C157.183 68.8 156.707 68.624 156.171 68.624ZM163.178 67.856C164.074 67.856 164.79 68.172 165.326 68.804C165.878 69.428 166.154 70.168 166.154 71.024C166.154 71.064 166.146 71.188 166.13 71.396H160.862C160.942 71.996 161.198 72.476 161.63 72.836C162.062 73.196 162.602 73.376 163.25 73.376C164.162 73.376 164.806 73.036 165.182 72.356L165.878 72.764C165.614 73.196 165.25 73.536 164.786 73.784C164.33 74.024 163.814 74.144 163.238 74.144C162.294 74.144 161.526 73.848 160.934 73.256C160.342 72.664 160.046 71.912 160.046 71C160.046 70.096 160.338 69.348 160.922 68.756C161.506 68.156 162.258 67.856 163.178 67.856ZM163.178 68.624C162.554 68.624 162.03 68.808 161.606 69.176C161.19 69.544 160.942 70.028 160.862 70.628H165.338C165.25 69.988 165.006 69.496 164.606 69.152C164.19 68.8 163.714 68.624 163.178 68.624Z" fill="black"></path> <g clip-path="url(#clip0_645_6)"> <path d="M105.398 16.5653H105.339C104.533 16.5608 103.755 16.8568 103.156 17.3953C102.671 16.053 101.438 15.0881 99.9945 15.0881C99.1097 15.0943 98.2645 15.4576 97.6514 16.0961C97.0877 14.9549 95.9569 14.1808 94.6566 14.1808H94.5939C93.897 14.1701 93.217 14.3967 92.6658 14.8231V6.68745C92.6658 4.7214 91.1351 3.12207 89.2732 3.12207C87.4134 3.12207 85.8907 4.72037 85.8897 6.68503L85.8741 22.8267L84.9606 21.7172C84.1596 20.7199 82.9804 20.1007 81.7047 20.0072C80.4552 19.9216 79.226 20.3563 78.3084 21.2091L77.5135 21.8676C77.2572 22.0802 77.1841 22.4424 77.3376 22.7377L85.0655 37.5922C86.4785 40.3069 89.167 42.0004 92.0817 42.0004H100.791V41.9928C105.207 41.9928 108.787 38.1611 108.791 33.4562C108.793 31.3512 108.785 29.7822 108.786 28.5106C108.791 25.1084 108.787 23.853 108.779 20.1048C108.774 18.1432 107.255 16.5653 105.398 16.5653V16.5653ZM107.363 28.5058C107.362 29.7777 107.36 31.3529 107.357 33.458C107.354 37.3849 104.389 40.587 100.749 40.587H92.0821C89.6962 40.587 87.4879 39.1847 86.3195 36.9395L78.8545 22.5949L79.2229 22.2875C79.2322 22.2799 79.2412 22.2709 79.2501 22.263C79.8839 21.6665 80.7367 21.3602 81.605 21.4171C82.4926 21.4851 83.3116 21.919 83.8667 22.6149L86.0294 25.2464C86.2184 25.4772 86.5323 25.5638 86.8132 25.4634C87.094 25.363 87.2816 25.0967 87.2816 24.7986L87.2944 6.68572C87.2951 5.49968 88.1921 4.53477 89.2739 4.53477C90.3558 4.53477 91.2527 5.50071 91.2527 6.68745V17.6085C91.2527 17.6465 91.251 17.6848 91.251 17.7234C91.251 17.7399 91.2527 17.7569 91.2527 17.7731V22.4424C91.2527 22.8326 91.5691 23.1489 91.9592 23.1489C92.3494 23.1489 92.6658 22.8326 92.6658 22.4424V17.6323C92.6658 16.488 93.5399 15.5938 94.5939 15.5938H94.6566C95.7392 15.5938 96.6399 16.5373 96.6399 17.7241V21.9967C96.6399 22.3868 96.9563 22.7032 97.3465 22.7032C97.7366 22.7032 98.053 22.3868 98.053 21.9967V18.6445C98.053 17.4574 98.9106 16.4918 99.999 16.4918C101.081 16.4918 101.939 17.4571 101.939 18.6445V21.8069C101.939 22.1971 102.255 22.5134 102.645 22.5134C103.036 22.5134 103.352 22.1971 103.352 21.8069V20.0944C103.352 18.9074 104.256 17.9783 105.339 17.9783H105.398C106.478 17.9783 107.358 18.9232 107.361 20.1065C107.369 23.852 107.367 25.106 107.363 28.5058Z" fill="black"></path> <path d="M83.6518 6.99207C84.042 6.99207 84.3584 6.67573 84.3584 6.28555C84.3697 3.58953 86.5586 1.41028 89.2543 1.41028C91.9504 1.41028 94.1389 3.58953 94.1503 6.28555C94.1503 6.67573 94.4666 6.99207 94.8568 6.99207C95.247 6.99207 95.5633 6.67573 95.5633 6.28555C95.5502 2.81021 92.7297 0 89.2543 0C85.7793 0 82.9584 2.81021 82.9453 6.28555C82.9453 6.67573 83.2617 6.99207 83.6518 6.99207Z" fill="black"></path> </g> <defs> <clipPath id="clip0_645_6"> <rect width="42" height="42" fill="white" transform="translate(72)"></rect> </clipPath> </defs> </svg> 