<?xml version="1.0" encoding="UTF-8"?> <svg xmlns="http://www.w3.org/2000/svg" width="774" height="602" viewBox="0 0 774 602" fill="none"> <path d="M398.744 602H0C0 602 204.701 589.322 292.305 370.916C294.189 366.258 295.964 361.975 297.678 357.904L408.812 87.463C416.238 68.964 437.239 54 455.738 54H555.966H623.256H774V73.6245C706.873 98.8635 614.328 156.088 562.616 285.071C558.138 296.188 554.142 305.472 550.521 313.258L445.635 568.512C438.211 586.996 417.232 602 398.744 602Z" fill="#A3A1A1"></path> <path d="M572.195 302H480.486C470.357 302 458.867 310.191 454.794 320.32L393.962 468.367C393.017 470.594 392.051 472.946 391.021 475.495C343.065 595.054 231 602 231 602H357.563H394.656H449.284C459.414 602 470.889 593.78 474.956 583.667L532.375 443.93C534.354 439.669 536.548 434.578 538.997 428.496C586.94 308.918 699 302 699 302H572.195" fill="#BF1B2C"></path> <path d="M526.193 -8.27896e-06H434.484C424.357 -8.27896e-06 412.856 8.19344 408.798 18.3303L347.957 166.371C347.015 168.596 346.047 170.946 345.023 173.495C297.06 293.054 185 300 185 300H311.552H348.645H403.284C413.403 300 424.889 291.774 428.949 281.661L486.373 141.927C488.358 137.669 490.541 132.579 492.988 126.496C540.931 6.92189 653 -8.27896e-06 653 -8.27896e-06H526.193" fill="#D3D2D2"></path> </svg> 